0
SECTION
2
HEADER
9
$INSUNITS
70
4
9
$ACADVER
1
AC1014
9
$HANDSEED
5
FFFF
0
ENDSEC
0
SECTION
2
TABLES
0
TABLE
2
VPORT
5
8
100
AcDbSymbolTable
0
ENDTAB
0
TABLE
2
LTYPE
5
5
100
AcDbSymbolTable
0
LTYPE
5
14
100
AcDbSymbolTableRecord
100
AcDbLinetypeTableRecord
2
BYBLOCK
70
0
0
LTYPE
5
15
100
AcDbSymbolTableRecord
100
AcDbLinetypeTableRecord
2
BYLAYER
70
0
0
LTYPE
5
16
100
AcDbSymbolTableRecord
100
AcDbLinetypeTableRecord
2
DASHED
70
0
3
Dashed __ __ __ __ __ __ __ __ __ __ __ __ __ _
72
65
73
2
40
0.75
49
0.5
74
0
49
-0.25
74
0
0
ENDTAB
0
TABLE
2
LAYER
5
2
100
AcDbSymbolTable
70
2
0
LAYER
5
50
100
AcDbSymbolTableRecord
100
AcDbLayerTableRecord
2
0
70
0
62
7
6
CONTINUOUS
0
ENDTAB
0
TABLE
2
STYLE
5
3
100
AcDbSymbolTable
70
1
0
STYLE
5
11
100
AcDbSymbolTableRecord
100
AcDbTextStyleTableRecord
2
STANDARD
70
0
0
ENDTAB
0
TABLE
2
VIEW
5
6
100
AcDbSymbolTable
70
0
0
ENDTAB
0
TABLE
2
UCS
5
7
100
AcDbSymbolTable
70
0
0
ENDTAB
0
TABLE
2
APPID
5
9
100
AcDbSymbolTable
70
2
0
APPID
5
12
100
AcDbSymbolTableRecord
100
AcDbRegAppTableRecord
2
ACAD
70
0
0
ENDTAB
0
TABLE
2
DIMSTYLE
5
A
100
AcDbSymbolTable
70
1
0
ENDTAB
0
TABLE
2
BLOCK_RECORD
5
1
100
AcDbSymbolTable
70
1
0
BLOCK_RECORD
5
1F
100
AcDbSymbolTableRecord
100
AcDbBlockTableRecord
2
*MODEL_SPACE
0
BLOCK_RECORD
5
1B
100
AcDbSymbolTableRecord
100
AcDbBlockTableRecord
2
*PAPER_SPACE
0
ENDTAB
0
ENDSEC
0
SECTION
2
BLOCKS
0
BLOCK
5
20
100
AcDbEntity
100
AcDbBlockBegin
2
*MODEL_SPACE
0
ENDBLK
5
21
100
AcDbEntity
100
AcDbBlockEnd
0
BLOCK
5
1C
100
AcDbEntity
100
AcDbBlockBegin
2
*PAPER_SPACE
0
ENDBLK
5
1D
100
AcDbEntity
100
AcDbBlockEnd
0
ENDSEC
0
SECTION
2
ENTITIES
0
LWPOLYLINE
5
100
100
AcDbEntity
8
0
100
AcDbPolyline
90
36
70
1
43
0.0
10
18.749999999999702
20
432.50000000000335
10
69.249999999999829
20
432.5000000000033
42
-0.41421356237309415
10
71.999999999999815
20
429.7500000000033
10
71.999999999999815
20
422.49999068677761
42
0.99999999999999989
10
85.499999999999886
20
422.49999068677761
10
85.499999999999915
20
427.00000000000335
42
-0.3388658105752313
10
88.086998726582635
20
430.37882060411044
10
96.193287888635098
20
432.56924536908508
42
0.13111564547894439
10
97.085786437626922
20
433.0857864376303
10
100.91421356237302
20
436.91421356237635
42
0.19891236737967757
10
101.49999999999997
20
438.32842712474951
10
101.49999999999994
20
561.6715728752572
42
0.19891236737965967
10
100.91421356237304
20
563.0857864376303
10
97.085786437626894
20
566.91421356237629
42
0.13111564547892943
10
96.19328788863514
20
567.43075463092157
10
88.086998726582678
20
569.62117939589621
42
-0.3388658105752464
10
85.499999999999915
20
573.0000000000033
10
85.499999999999901
20
577.50000931322904
42
0.99999999999999989
10
71.999999999999829
20
577.50000931322904
10
71.999999999999829
20
570.25000000000341
42
-0.41421356237309598
10
69.249999999999829
20
567.50000000000341
10
18.749999999999698
20
567.50000000000341
42
-0.41421356237309481
10
15.999999999999714
20
570.25000000000341
10
15.999999999999714
20
577.5000000000033
42
0.99999999999999989
10
2.4999999999996581
20
577.5000000000033
10
2.4999999999996807
20
573.0000000000033
42
-0.32737047615803633
10
0.052023121386976512
20
569.66184971098596
10
-7.1011560693645484
20
567.40751445087051
42
0.32737047615803105
10
-8.5000000000003979
20
565.5000000000033
10
-8.5000000000003979
20
434.50000000000335
42
0.32737047615805132
10
-7.1011560693645359
20
432.59248554913626
10
0.052023121386982341
20
430.33815028902069
42
-0.3273704761580204
10
2.4999999999996496
20
427.00000000000335
10
2.4999999999996492
20
422.50000000000335
42
0.99999999999999989
10
15.999999999999705
20
422.50000000000335
10
15.999999999999643
20
429.7500000000033
42
-0.41421356237309503
0
ENDSEC
0
SECTION
2
OBJECTS
0
DICTIONARY
5
C
100
AcDbDictionary
3
ACAD_GROUP
350
D
3
ACAD_MLINESTYLE
350
17
0
DICTIONARY
5
D
100
AcDbDictionary
0
DICTIONARY
5
1A
330
C
100
AcDbDictionary
0
DICTIONARY
5
17
100
AcDbDictionary
0
ENDSEC
0
EOF
