G04 #@! TF.GenerationSoftware,KiCad,Pcbnew,8.0.8*
G04 #@! TF.CreationDate,2025-06-05T04:48:54-07:00*
G04 #@! TF.ProjectId,MK1 PCB BUILD PLATE,4d4b3120-5043-4422-9042-55494c442050,rev?*
G04 #@! TF.SameCoordinates,Original*
G04 #@! TF.FileFunction,Copper,L1,Top*
G04 #@! TF.FilePolarity,Positive*
%FSLAX46Y46*%
G04 Gerber Fmt 4.6, Leading zero omitted, Abs format (unit mm)*
G04 Created by KiCad (PCBNEW 8.0.8) date 2025-06-05 04:48:54*
%MOMM*%
%LPD*%
G01*
G04 APERTURE LIST*
G04 #@! TA.AperFunction,ComponentPad*
%ADD10C,6.400000*%
G04 #@! TD*
G04 #@! TA.AperFunction,ComponentPad*
%ADD11C,5.000000*%
G04 #@! TD*
G04 #@! TA.AperFunction,Conductor*
%ADD12C,0.800000*%
G04 #@! TD*
G04 #@! TA.AperFunction,Conductor*
%ADD13C,2.000000*%
G04 #@! TD*
G04 #@! TA.AperFunction,Conductor*
%ADD14C,1.000000*%
G04 #@! TD*
G04 #@! TA.AperFunction,Conductor*
%ADD15C,0.900000*%
G04 #@! TD*
G04 APERTURE END LIST*
D10*
X76600001Y-99433975D03*
X76600001Y-74433975D03*
D11*
X121100001Y-86933975D03*
D12*
X92460001Y-85373975D02*
X92460001Y-68343975D01*
X89620001Y-85373975D02*
X89620001Y-68343975D01*
X96720001Y-68343975D02*
X96720001Y-85373975D01*
X98140001Y-85373975D02*
X98140001Y-68343975D01*
X95300001Y-85373975D02*
X95300001Y-68343975D01*
X100980001Y-85373975D02*
X100980001Y-68343975D01*
X103820001Y-85373975D02*
X103820001Y-68343975D01*
X86070001Y-67633975D02*
X85400001Y-67633975D01*
X93880001Y-68343975D02*
X93880001Y-85373975D01*
X86780001Y-85373975D02*
X86780001Y-68343975D01*
X91040001Y-68343975D02*
X91040001Y-85373975D01*
X99560001Y-68343975D02*
X99560001Y-85373975D01*
X112340001Y-85373975D02*
X112340001Y-68343975D01*
X126540001Y-85373975D02*
X126540001Y-68343975D01*
X204640001Y-68343975D02*
X204640001Y-85373975D01*
X189020001Y-85373975D02*
X189020001Y-68343975D01*
X149260001Y-82723975D02*
X149260001Y-68343975D01*
X143580001Y-85373975D02*
X143580001Y-68343975D01*
X186180001Y-85373975D02*
X186180001Y-68343975D01*
X119440001Y-68343975D02*
X119440001Y-83923975D01*
X198960001Y-68343975D02*
X198960001Y-85373975D01*
X208900001Y-85373975D02*
X208900001Y-68343975D01*
X90330001Y-86083975D02*
G75*
G02*
X89620025Y-85373975I-1J709975D01*
G01*
X88910001Y-67633975D02*
G75*
G03*
X88199975Y-68343975I-1J-710025D01*
G01*
X113760001Y-68343975D02*
X113760001Y-85373975D01*
X115180001Y-85373975D02*
X115180001Y-68343975D01*
X120860001Y-83123975D02*
X120860001Y-68343975D01*
X147840001Y-68343975D02*
X147840001Y-85123975D01*
X157780001Y-85373975D02*
X157780001Y-68343975D01*
X171980001Y-85373975D02*
X171980001Y-68343975D01*
X156360001Y-68343975D02*
X156360001Y-85373975D01*
X122280001Y-68343975D02*
X122280001Y-83123975D01*
X125120001Y-68343975D02*
X125120001Y-85023975D01*
X201800001Y-68343975D02*
X201800001Y-85373975D01*
X133640001Y-68343975D02*
X133640001Y-85373975D01*
X184760001Y-68343975D02*
X184760001Y-85373975D01*
X164880001Y-68343975D02*
X164880001Y-85373975D01*
X179080001Y-68343975D02*
X179080001Y-85373975D01*
X166300001Y-85373975D02*
X166300001Y-68343975D01*
X135060001Y-85373975D02*
X135060001Y-68343975D01*
X136480001Y-68343975D02*
X136480001Y-85373975D01*
X173400001Y-68343975D02*
X173400001Y-85373975D01*
X167720001Y-68343975D02*
X167720001Y-85373975D01*
X92460001Y-68343975D02*
G75*
G03*
X91750001Y-67633999I-710001J-25D01*
G01*
X187600001Y-68343975D02*
X187600001Y-85373975D01*
X139320001Y-68343975D02*
X139320001Y-85373975D01*
X152100001Y-82923975D02*
X152100001Y-68343975D01*
X170560001Y-68343975D02*
X170560001Y-85373975D01*
X206060001Y-85373975D02*
X206060001Y-68343975D01*
X86780001Y-68343975D02*
G75*
G03*
X86070001Y-67633999I-710001J-25D01*
G01*
X207480001Y-68343975D02*
X207480001Y-85373975D01*
X116600001Y-68343975D02*
X116600001Y-85373975D01*
X150680001Y-68343975D02*
X150680001Y-82723975D01*
X153520001Y-68343975D02*
X153520001Y-82923975D01*
X174820001Y-85373975D02*
X174820001Y-68343975D01*
X154940001Y-85373975D02*
X154940001Y-68343975D01*
X160620001Y-85373975D02*
X160620001Y-68343975D01*
X176240001Y-68343975D02*
X176240001Y-85373975D01*
X129380001Y-85373975D02*
X129380001Y-68343975D01*
X88200001Y-85373975D02*
G75*
G02*
X87490001Y-86084001I-710001J-25D01*
G01*
X193280001Y-68343975D02*
X193280001Y-85373975D01*
X130800001Y-68343975D02*
X130800001Y-85373975D01*
X140740001Y-85373975D02*
X140740001Y-68343975D01*
X211740001Y-85373975D02*
X211740001Y-68343975D01*
X180500001Y-85373975D02*
X180500001Y-68343975D01*
X200380001Y-85373975D02*
X200380001Y-68343975D01*
X210320001Y-68343975D02*
X210320001Y-85373975D01*
X163460001Y-85373975D02*
X163460001Y-68343975D01*
X91750001Y-67633975D02*
G75*
G03*
X91039975Y-68343975I-1J-710025D01*
G01*
X91040001Y-85373975D02*
G75*
G02*
X90330001Y-86084001I-710001J-25D01*
G01*
X177660001Y-85373975D02*
X177660001Y-68343975D01*
X213160001Y-68343975D02*
X213160001Y-85373975D01*
X142160001Y-68343975D02*
X142160001Y-85373975D01*
X105240001Y-68343975D02*
X105240001Y-85373975D01*
X183340001Y-85373975D02*
X183340001Y-68343975D01*
X87490001Y-86083975D02*
G75*
G02*
X86780025Y-85373975I-1J709975D01*
G01*
X141450001Y-86083975D02*
G75*
G02*
X140740025Y-85373975I-1J709975D01*
G01*
X119440001Y-83923975D02*
G75*
G02*
X118730001Y-84634001I-710001J-25D01*
G01*
X130800001Y-85373975D02*
G75*
G02*
X130090001Y-86084001I-710001J-25D01*
G01*
X113760001Y-85373975D02*
G75*
G02*
X113050001Y-86084001I-710001J-25D01*
G01*
X139320001Y-85373975D02*
G75*
G02*
X138610001Y-86084001I-710001J-25D01*
G01*
X93880001Y-85373975D02*
G75*
G02*
X93170001Y-86084001I-710001J-25D01*
G01*
X101690001Y-86083975D02*
G75*
G02*
X100980025Y-85373975I-1J709975D01*
G01*
X89620001Y-68343975D02*
G75*
G03*
X88910001Y-67633999I-710001J-25D01*
G01*
X94590001Y-67633975D02*
G75*
G03*
X93879975Y-68343975I-1J-710025D01*
G01*
X95300001Y-68343975D02*
G75*
G03*
X94590001Y-67633999I-710001J-25D01*
G01*
X97430001Y-67633975D02*
G75*
G03*
X96719975Y-68343975I-1J-710025D01*
G01*
X123700001Y-85023975D02*
X123700001Y-68343975D01*
X132930001Y-86083975D02*
G75*
G02*
X132220025Y-85373975I-1J709975D01*
G01*
X115180001Y-68343975D02*
G75*
G03*
X114470001Y-67633999I-710001J-25D01*
G01*
X124410001Y-85733975D02*
G75*
G02*
X123700025Y-85023975I-1J709975D01*
G01*
X162040001Y-68343975D02*
X162040001Y-85373975D01*
X96010001Y-86083975D02*
G75*
G02*
X95300025Y-85373975I-1J709975D01*
G01*
X96720001Y-85373975D02*
G75*
G02*
X96010001Y-86084001I-710001J-25D01*
G01*
X98850001Y-86083975D02*
G75*
G02*
X98140025Y-85373975I-1J709975D01*
G01*
X113050001Y-86083975D02*
G75*
G02*
X112340025Y-85373975I-1J709975D01*
G01*
X123700001Y-68343975D02*
G75*
G03*
X122990001Y-67633999I-710001J-25D01*
G01*
X114470001Y-67633975D02*
G75*
G03*
X113759975Y-68343975I-1J-710025D01*
G01*
X98140001Y-68343975D02*
G75*
G03*
X97430001Y-67633999I-710001J-25D01*
G01*
X181920001Y-68343975D02*
X181920001Y-85373975D01*
X137900001Y-68343975D02*
G75*
G03*
X137190001Y-67633999I-710001J-25D01*
G01*
X100270001Y-67633975D02*
G75*
G03*
X99559975Y-68343975I-1J-710025D01*
G01*
X109500001Y-85373975D02*
X109500001Y-68343975D01*
X110210001Y-86083975D02*
G75*
G02*
X109500025Y-85373975I-1J709975D01*
G01*
X104530001Y-86083975D02*
G75*
G02*
X103820025Y-85373975I-1J709975D01*
G01*
X100980001Y-68343975D02*
G75*
G03*
X100270001Y-67633999I-710001J-25D01*
G01*
X105950001Y-67633975D02*
G75*
G03*
X105239975Y-68343975I-1J-710025D01*
G01*
X122990001Y-67633975D02*
G75*
G03*
X122279975Y-68343975I-1J-710025D01*
G01*
X122280001Y-83123975D02*
G75*
G02*
X121570001Y-83834001I-710001J-25D01*
G01*
X126540001Y-68343975D02*
G75*
G03*
X125830001Y-67633999I-710001J-25D01*
G01*
X137190001Y-67633975D02*
G75*
G03*
X136479975Y-68343975I-1J-710025D01*
G01*
X99560001Y-85373975D02*
G75*
G02*
X98850001Y-86084001I-710001J-25D01*
G01*
X132220001Y-68343975D02*
G75*
G03*
X131510001Y-67633999I-710001J-25D01*
G01*
X108790001Y-67633975D02*
G75*
G03*
X108079975Y-68343975I-1J-710025D01*
G01*
X102400001Y-68343975D02*
X102400001Y-85373975D01*
X118020001Y-68343975D02*
G75*
G03*
X117310001Y-67633999I-710001J-25D01*
G01*
X137900001Y-85373975D02*
X137900001Y-68343975D01*
X138610001Y-86083975D02*
G75*
G02*
X137900025Y-85373975I-1J709975D01*
G01*
X142160001Y-85373975D02*
G75*
G02*
X141450001Y-86084001I-710001J-25D01*
G01*
X129380001Y-68343975D02*
G75*
G03*
X128670001Y-67633999I-710001J-25D01*
G01*
X103110001Y-67633975D02*
G75*
G03*
X102399975Y-68343975I-1J-710025D01*
G01*
X120150001Y-67633975D02*
G75*
G03*
X119439975Y-68343975I-1J-710025D01*
G01*
X145000001Y-68343975D02*
X145000001Y-85373975D01*
X125830001Y-67633975D02*
G75*
G03*
X125119975Y-68343975I-1J-710025D01*
G01*
X140030001Y-67633975D02*
G75*
G03*
X139319975Y-68343975I-1J-710025D01*
G01*
X107370001Y-86083975D02*
G75*
G02*
X106660025Y-85373975I-1J709975D01*
G01*
X130090001Y-86083975D02*
G75*
G02*
X129380025Y-85373975I-1J709975D01*
G01*
X125120001Y-85023975D02*
G75*
G02*
X124410001Y-85734001I-710001J-25D01*
G01*
X109500001Y-68343975D02*
G75*
G03*
X108790001Y-67633999I-710001J-25D01*
G01*
X121570001Y-83833975D02*
G75*
G02*
X120860025Y-83123975I-1J709975D01*
G01*
X127250001Y-86083975D02*
G75*
G02*
X126540025Y-85373975I-1J709975D01*
G01*
X115890001Y-86083975D02*
G75*
G02*
X115180025Y-85373975I-1J709975D01*
G01*
X118730001Y-84633975D02*
G75*
G02*
X118020025Y-83923975I-1J709975D01*
G01*
X88200001Y-68343975D02*
X88200001Y-85373975D01*
X112340001Y-68343975D02*
G75*
G03*
X111630001Y-67633999I-710001J-25D01*
G01*
X105240001Y-85373975D02*
G75*
G02*
X104530001Y-86084001I-710001J-25D01*
G01*
X194700001Y-85373975D02*
X194700001Y-68343975D01*
X214650001Y-67633975D02*
X213870001Y-67633975D01*
X117310001Y-67633975D02*
G75*
G03*
X116599975Y-68343975I-1J-710025D01*
G01*
X140740001Y-68343975D02*
G75*
G03*
X140030001Y-67633999I-710001J-25D01*
G01*
X160620001Y-68343975D02*
G75*
G03*
X159910001Y-67633999I-710001J-25D01*
G01*
X143580001Y-68343975D02*
G75*
G03*
X142870001Y-67633999I-710001J-25D01*
G01*
X162750001Y-67633975D02*
G75*
G03*
X162039975Y-68343975I-1J-710025D01*
G01*
X157780001Y-68343975D02*
G75*
G03*
X157070001Y-67633999I-710001J-25D01*
G01*
X186890001Y-86083975D02*
G75*
G02*
X186180025Y-85373975I-1J709975D01*
G01*
X103820001Y-68343975D02*
G75*
G03*
X103110001Y-67633999I-710001J-25D01*
G01*
X168430001Y-67633975D02*
G75*
G03*
X167719975Y-68343975I-1J-710025D01*
G01*
X176950001Y-67633975D02*
G75*
G03*
X176239975Y-68343975I-1J-710025D01*
G01*
X186180001Y-68343975D02*
G75*
G03*
X185470001Y-67633999I-710001J-25D01*
G01*
X214650001Y-106233975D02*
X214650001Y-67633975D01*
X170560001Y-85373975D02*
G75*
G02*
X169850001Y-86084001I-710001J-25D01*
G01*
X146420001Y-68343975D02*
G75*
G03*
X145710001Y-67633999I-710001J-25D01*
G01*
X127960001Y-85373975D02*
G75*
G02*
X127250001Y-86084001I-710001J-25D01*
G01*
X136480001Y-85373975D02*
G75*
G02*
X135770001Y-86084001I-710001J-25D01*
G01*
X188310001Y-67633975D02*
G75*
G03*
X187599975Y-68343975I-1J-710025D01*
G01*
X111630001Y-67633975D02*
G75*
G03*
X110919975Y-68343975I-1J-710025D01*
G01*
X147840001Y-85123975D02*
G75*
G02*
X147130001Y-85834001I-710001J-25D01*
G01*
X106660001Y-85373975D02*
X106660001Y-68343975D01*
X150680001Y-82723975D02*
G75*
G02*
X149970001Y-83434001I-710001J-25D01*
G01*
X152810001Y-83633975D02*
G75*
G02*
X152100025Y-82923975I-1J709975D01*
G01*
X153520001Y-82923975D02*
G75*
G02*
X152810001Y-83634001I-710001J-25D01*
G01*
X154230001Y-67633975D02*
G75*
G03*
X153519975Y-68343975I-1J-710025D01*
G01*
X158490001Y-86083975D02*
G75*
G02*
X157780025Y-85373975I-1J709975D01*
G01*
X174820001Y-68343975D02*
G75*
G03*
X174110001Y-67633999I-710001J-25D01*
G01*
X179080001Y-85373975D02*
G75*
G02*
X178370001Y-86084001I-710001J-25D01*
G01*
X190440001Y-68343975D02*
X190440001Y-85373975D01*
X184050001Y-86083975D02*
G75*
G02*
X183340025Y-85373975I-1J709975D01*
G01*
X197540001Y-85373975D02*
X197540001Y-68343975D01*
X142870001Y-67633975D02*
G75*
G03*
X142159975Y-68343975I-1J-710025D01*
G01*
X128670001Y-67633975D02*
G75*
G03*
X127959975Y-68343975I-1J-710025D01*
G01*
X173400001Y-85373975D02*
G75*
G02*
X172690001Y-86084001I-710001J-25D01*
G01*
X149260001Y-68343975D02*
G75*
G03*
X148550001Y-67633999I-710001J-25D01*
G01*
X145710001Y-67633975D02*
G75*
G03*
X144999975Y-68343975I-1J-710025D01*
G01*
X164880001Y-85373975D02*
G75*
G02*
X164170001Y-86084001I-710001J-25D01*
G01*
X154940001Y-68343975D02*
G75*
G03*
X154230001Y-67633999I-710001J-25D01*
G01*
X118020001Y-83923975D02*
X118020001Y-68343975D01*
X184760001Y-85373975D02*
G75*
G02*
X184050001Y-86084001I-710001J-25D01*
G01*
X185470001Y-67633975D02*
G75*
G03*
X184759975Y-68343975I-1J-710025D01*
G01*
X146420001Y-85123975D02*
X146420001Y-68343975D01*
X110920001Y-85373975D02*
G75*
G02*
X110210001Y-86084001I-710001J-25D01*
G01*
X147130001Y-85833975D02*
G75*
G02*
X146420025Y-85123975I-1J709975D01*
G01*
X149970001Y-83433975D02*
G75*
G02*
X149260025Y-82723975I-1J709975D01*
G01*
X203220001Y-85373975D02*
X203220001Y-68343975D01*
X171270001Y-67633975D02*
G75*
G03*
X170559975Y-68343975I-1J-710025D01*
G01*
X189020001Y-68343975D02*
G75*
G03*
X188310001Y-67633999I-710001J-25D01*
G01*
X163460001Y-68343975D02*
G75*
G03*
X162750001Y-67633999I-710001J-25D01*
G01*
X159200001Y-68343975D02*
X159200001Y-85373975D01*
X108080001Y-85373975D02*
G75*
G02*
X107370001Y-86084001I-710001J-25D01*
G01*
X144290001Y-86083975D02*
G75*
G02*
X143580025Y-85373975I-1J709975D01*
G01*
X135060001Y-68343975D02*
G75*
G03*
X134350001Y-67633999I-710001J-25D01*
G01*
X110920001Y-68343975D02*
X110920001Y-85373975D01*
X176240001Y-85373975D02*
G75*
G02*
X175530001Y-86084001I-710001J-25D01*
G01*
X181210001Y-86083975D02*
G75*
G02*
X180500025Y-85373975I-1J709975D01*
G01*
X183340001Y-68343975D02*
G75*
G03*
X182630001Y-67633999I-710001J-25D01*
G01*
X165590001Y-67633975D02*
G75*
G03*
X164879975Y-68343975I-1J-710025D01*
G01*
X166300001Y-68343975D02*
G75*
G03*
X165590001Y-67633999I-710001J-25D01*
G01*
X161330001Y-86083975D02*
G75*
G02*
X160620025Y-85373975I-1J709975D01*
G01*
X174110001Y-67633975D02*
G75*
G03*
X173399975Y-68343975I-1J-710025D01*
G01*
X152100001Y-68343975D02*
G75*
G03*
X151390001Y-67633999I-710001J-25D01*
G01*
X162040001Y-85373975D02*
G75*
G02*
X161330001Y-86084001I-710001J-25D01*
G01*
X134350001Y-67633975D02*
G75*
G03*
X133639975Y-68343975I-1J-710025D01*
G01*
X196120001Y-68343975D02*
X196120001Y-85373975D01*
X145000001Y-85373975D02*
G75*
G02*
X144290001Y-86084001I-710001J-25D01*
G01*
X179790001Y-67633975D02*
G75*
G03*
X179079975Y-68343975I-1J-710025D01*
G01*
X201800001Y-85373975D02*
G75*
G02*
X201090001Y-86084001I-710001J-25D01*
G01*
X190440001Y-85373975D02*
G75*
G02*
X189730001Y-86084001I-710001J-25D01*
G01*
X203220001Y-68343975D02*
G75*
G03*
X202510001Y-67633999I-710001J-25D01*
G01*
X181920001Y-85373975D02*
G75*
G02*
X181210001Y-86084001I-710001J-25D01*
G01*
X159910001Y-67633975D02*
G75*
G03*
X159199975Y-68343975I-1J-710025D01*
G01*
X207480001Y-85373975D02*
G75*
G02*
X206770001Y-86084001I-710001J-25D01*
G01*
X156360001Y-85373975D02*
G75*
G02*
X155650001Y-86084001I-710001J-25D01*
G01*
X192570001Y-86083975D02*
G75*
G02*
X191860025Y-85373975I-1J709975D01*
G01*
X206060001Y-68343975D02*
G75*
G03*
X205350001Y-67633999I-710001J-25D01*
G01*
X208190001Y-67633975D02*
G75*
G03*
X207479975Y-68343975I-1J-710025D01*
G01*
X167010001Y-86083975D02*
G75*
G02*
X166300025Y-85373975I-1J709975D01*
G01*
X193280001Y-85373975D02*
G75*
G02*
X192570001Y-86084001I-710001J-25D01*
G01*
X194700001Y-68343975D02*
G75*
G03*
X193990001Y-67633999I-710001J-25D01*
G01*
X171980001Y-68343975D02*
G75*
G03*
X171270001Y-67633999I-710001J-25D01*
G01*
X211740001Y-68343975D02*
G75*
G03*
X211030001Y-67633999I-710001J-25D01*
G01*
X127960001Y-68343975D02*
X127960001Y-85373975D01*
X120860001Y-68343975D02*
G75*
G03*
X120150001Y-67633999I-710001J-25D01*
G01*
X200380001Y-68343975D02*
G75*
G03*
X199670001Y-67633999I-710001J-25D01*
G01*
X102400001Y-85373975D02*
G75*
G02*
X101690001Y-86084001I-710001J-25D01*
G01*
X182630001Y-67633975D02*
G75*
G03*
X181919975Y-68343975I-1J-710025D01*
G01*
X193990001Y-67633975D02*
G75*
G03*
X193279975Y-68343975I-1J-710025D01*
G01*
X201090001Y-86083975D02*
G75*
G02*
X200380025Y-85373975I-1J709975D01*
G01*
X198960001Y-85373975D02*
G75*
G02*
X198250001Y-86084001I-710001J-25D01*
G01*
X177660001Y-68343975D02*
G75*
G03*
X176950001Y-67633999I-710001J-25D01*
G01*
X167720001Y-85373975D02*
G75*
G02*
X167010001Y-86084001I-710001J-25D01*
G01*
X191860001Y-85373975D02*
X191860001Y-68343975D01*
X151390001Y-67633975D02*
G75*
G03*
X150679975Y-68343975I-1J-710025D01*
G01*
X133640001Y-85373975D02*
G75*
G02*
X132930001Y-86084001I-710001J-25D01*
G01*
X187600001Y-85373975D02*
G75*
G02*
X186890001Y-86084001I-710001J-25D01*
G01*
X203930001Y-86083975D02*
G75*
G02*
X203220025Y-85373975I-1J709975D01*
G01*
X172690001Y-86083975D02*
G75*
G02*
X171980025Y-85373975I-1J709975D01*
G01*
X116600001Y-85373975D02*
G75*
G02*
X115890001Y-86084001I-710001J-25D01*
G01*
X108080001Y-68343975D02*
X108080001Y-85373975D01*
X180500001Y-68343975D02*
G75*
G03*
X179790001Y-67633999I-710001J-25D01*
G01*
X196830001Y-67633975D02*
G75*
G03*
X196119975Y-68343975I-1J-710025D01*
G01*
X197540001Y-68343975D02*
G75*
G03*
X196830001Y-67633999I-710001J-25D01*
G01*
X208900001Y-68343975D02*
G75*
G03*
X208190001Y-67633999I-710001J-25D01*
G01*
X211030001Y-67633975D02*
G75*
G03*
X210319975Y-68343975I-1J-710025D01*
G01*
X191150001Y-67633975D02*
G75*
G03*
X190439975Y-68343975I-1J-710025D01*
G01*
X189730001Y-86083975D02*
G75*
G02*
X189020025Y-85373975I-1J709975D01*
G01*
X164170001Y-86083975D02*
G75*
G02*
X163460025Y-85373975I-1J709975D01*
G01*
X175530001Y-86083975D02*
G75*
G02*
X174820025Y-85373975I-1J709975D01*
G01*
X155650001Y-86083975D02*
G75*
G02*
X154940025Y-85373975I-1J709975D01*
G01*
X212450001Y-86083975D02*
G75*
G02*
X211740025Y-85373975I-1J709975D01*
G01*
X202510001Y-67633975D02*
G75*
G03*
X201799975Y-68343975I-1J-710025D01*
G01*
X106660001Y-68343975D02*
G75*
G03*
X105950001Y-67633999I-710001J-25D01*
G01*
X169140001Y-68343975D02*
G75*
G03*
X168430001Y-67633999I-710001J-25D01*
G01*
X210320001Y-85373975D02*
G75*
G02*
X209610001Y-86084001I-710001J-25D01*
G01*
X169850001Y-86083975D02*
G75*
G02*
X169140025Y-85373975I-1J709975D01*
G01*
X198250001Y-86083975D02*
G75*
G02*
X197540025Y-85373975I-1J709975D01*
G01*
X199670001Y-67633975D02*
G75*
G03*
X198959975Y-68343975I-1J-710025D01*
G01*
X148550001Y-67633975D02*
G75*
G03*
X147839975Y-68343975I-1J-710025D01*
G01*
X132220001Y-85373975D02*
X132220001Y-68343975D01*
X213160001Y-85373975D02*
G75*
G02*
X212450001Y-86084001I-710001J-25D01*
G01*
X204640001Y-85373975D02*
G75*
G02*
X203930001Y-86084001I-710001J-25D01*
G01*
X205350001Y-67633975D02*
G75*
G03*
X204639975Y-68343975I-1J-710025D01*
G01*
X196120001Y-85373975D02*
G75*
G02*
X195410001Y-86084001I-710001J-25D01*
G01*
X157070001Y-67633975D02*
G75*
G03*
X156359975Y-68343975I-1J-710025D01*
G01*
X206770001Y-86083975D02*
G75*
G02*
X206060025Y-85373975I-1J709975D01*
G01*
X178370001Y-86083975D02*
G75*
G02*
X177660025Y-85373975I-1J709975D01*
G01*
X169140001Y-85373975D02*
X169140001Y-68343975D01*
X191860001Y-68343975D02*
G75*
G03*
X191150001Y-67633999I-710001J-25D01*
G01*
X195410001Y-86083975D02*
G75*
G02*
X194700025Y-85373975I-1J709975D01*
G01*
X131510001Y-67633975D02*
G75*
G03*
X130799975Y-68343975I-1J-710025D01*
G01*
X209610001Y-86083975D02*
G75*
G02*
X208900025Y-85373975I-1J709975D01*
G01*
X135770001Y-86083975D02*
G75*
G02*
X135060025Y-85373975I-1J709975D01*
G01*
X213870001Y-67633975D02*
G75*
G03*
X213159975Y-68343975I-1J-710025D01*
G01*
X159200001Y-85373975D02*
G75*
G02*
X158490001Y-86084001I-710001J-25D01*
G01*
X93170001Y-86083975D02*
G75*
G02*
X92460025Y-85373975I-1J709975D01*
G01*
X84100001Y-68933975D02*
X85400001Y-67633975D01*
X84100001Y-69933975D02*
X84100001Y-68933975D01*
X206090001Y-105523975D02*
X206090001Y-88493975D01*
X105980001Y-106233975D02*
G75*
G03*
X106689975Y-105523975I-1J709975D01*
G01*
X112370001Y-88493975D02*
G75*
G02*
X113080001Y-87784001I709999J-25D01*
G01*
X113790001Y-105523975D02*
G75*
G03*
X114500001Y-106233999I709999J-25D01*
G01*
X107400001Y-87783975D02*
G75*
G02*
X108110025Y-88493975I-1J-710025D01*
G01*
X191890001Y-88493975D02*
G75*
G02*
X192600001Y-87784001I709999J-25D01*
G01*
X144320001Y-87783975D02*
G75*
G02*
X145030025Y-88493975I-1J-710025D01*
G01*
X169170001Y-105523975D02*
X169170001Y-88493975D01*
X103850001Y-88493975D02*
G75*
G02*
X104560001Y-87784001I709999J-25D01*
G01*
X101010001Y-88493975D02*
G75*
G02*
X101720001Y-87784001I709999J-25D01*
G01*
X100300001Y-106233975D02*
G75*
G03*
X101009975Y-105523975I-1J709975D01*
G01*
X139350001Y-88493975D02*
X139350001Y-105523975D01*
X101720001Y-87783975D02*
G75*
G02*
X102430025Y-88493975I-1J-710025D01*
G01*
X99590001Y-105523975D02*
G75*
G03*
X100300001Y-106233999I709999J-25D01*
G01*
X109530001Y-105523975D02*
X109530001Y-88493975D01*
X115210001Y-88493975D02*
G75*
G02*
X115920001Y-87784001I709999J-25D01*
G01*
X113080001Y-87783975D02*
G75*
G02*
X113790025Y-88493975I-1J-710025D01*
G01*
X110240001Y-87783975D02*
G75*
G02*
X110950025Y-88493975I-1J-710025D01*
G01*
X98170001Y-88493975D02*
G75*
G02*
X98880001Y-87784001I709999J-25D01*
G01*
X109530001Y-88493975D02*
G75*
G02*
X110240001Y-87784001I709999J-25D01*
G01*
X106690001Y-88493975D02*
G75*
G02*
X107400001Y-87784001I709999J-25D01*
G01*
X97460001Y-106233975D02*
G75*
G03*
X98169975Y-105523975I-1J709975D01*
G01*
X105270001Y-105523975D02*
G75*
G03*
X105980001Y-106233999I709999J-25D01*
G01*
X191180001Y-106233975D02*
G75*
G03*
X191889975Y-105523975I-1J709975D01*
G01*
X123020001Y-106233975D02*
G75*
G03*
X123729975Y-105523975I-1J709975D01*
G01*
X122310001Y-105523975D02*
G75*
G03*
X123020001Y-106233999I709999J-25D01*
G01*
X123730001Y-88793975D02*
G75*
G02*
X124440001Y-88084001I709999J-25D01*
G01*
X114500001Y-106233975D02*
G75*
G03*
X115209975Y-105523975I-1J709975D01*
G01*
X161360001Y-87783975D02*
G75*
G02*
X162070025Y-88493975I-1J-710025D01*
G01*
X140770001Y-105523975D02*
X140770001Y-88493975D01*
X118050001Y-89943975D02*
G75*
G02*
X118760001Y-89234001I709999J-25D01*
G01*
X116630001Y-105523975D02*
G75*
G03*
X117340001Y-106233999I709999J-25D01*
G01*
X115920001Y-87783975D02*
G75*
G02*
X116630025Y-88493975I-1J-710025D01*
G01*
X118760001Y-89233975D02*
G75*
G02*
X119470025Y-89943975I-1J-710025D01*
G01*
X98880001Y-87783975D02*
G75*
G02*
X99590025Y-88493975I-1J-710025D01*
G01*
X157810001Y-88493975D02*
G75*
G02*
X158520001Y-87784001I709999J-25D01*
G01*
X111660001Y-106233975D02*
G75*
G03*
X112369975Y-105523975I-1J709975D01*
G01*
X137220001Y-106233975D02*
G75*
G03*
X137929975Y-105523975I-1J709975D01*
G01*
X110950001Y-105523975D02*
G75*
G03*
X111660001Y-106233999I709999J-25D01*
G01*
X170590001Y-105523975D02*
G75*
G03*
X171300001Y-106233999I709999J-25D01*
G01*
X121600001Y-90033975D02*
G75*
G02*
X122310025Y-90743975I-1J-710025D01*
G01*
X108110001Y-105523975D02*
G75*
G03*
X108820001Y-106233999I709999J-25D01*
G01*
X119470001Y-105523975D02*
G75*
G03*
X120180001Y-106233999I709999J-25D01*
G01*
X96750001Y-105523975D02*
G75*
G03*
X97460001Y-106233999I709999J-25D01*
G01*
X91780001Y-106233975D02*
G75*
G03*
X92489975Y-105523975I-1J709975D01*
G01*
X88940001Y-106233975D02*
G75*
G03*
X89649975Y-105523975I-1J709975D01*
G01*
X88230001Y-105523975D02*
G75*
G03*
X88940001Y-106233999I709999J-25D01*
G01*
X95330001Y-88493975D02*
G75*
G02*
X96040001Y-87784001I709999J-25D01*
G01*
X92490001Y-88493975D02*
G75*
G02*
X93200001Y-87784001I709999J-25D01*
G01*
X210350001Y-88493975D02*
X210350001Y-105523975D01*
X130830001Y-105523975D02*
G75*
G03*
X131540001Y-106233999I709999J-25D01*
G01*
X211770001Y-105523975D02*
X211770001Y-88493975D01*
X93200001Y-87783975D02*
G75*
G02*
X93910025Y-88493975I-1J-710025D01*
G01*
X88230001Y-88493975D02*
X88230001Y-105523975D01*
X204670001Y-105523975D02*
G75*
G03*
X205380001Y-106233999I709999J-25D01*
G01*
X196150001Y-88493975D02*
X196150001Y-105523975D01*
X120890001Y-105523975D02*
X120890001Y-90743975D01*
X127990001Y-105523975D02*
G75*
G03*
X128700001Y-106233999I709999J-25D01*
G01*
X87520001Y-87783975D02*
G75*
G02*
X88230025Y-88493975I-1J-710025D01*
G01*
X193310001Y-88493975D02*
X193310001Y-105523975D01*
X120890001Y-90743975D02*
G75*
G02*
X121600001Y-90034001I709999J-25D01*
G01*
X117340001Y-106233975D02*
G75*
G03*
X118049975Y-105523975I-1J709975D01*
G01*
X104560001Y-87783975D02*
G75*
G02*
X105270025Y-88493975I-1J-710025D01*
G01*
X94620001Y-106233975D02*
G75*
G03*
X95329975Y-105523975I-1J709975D01*
G01*
X93910001Y-105523975D02*
G75*
G03*
X94620001Y-106233999I709999J-25D01*
G01*
X134380001Y-106233975D02*
G75*
G03*
X135089975Y-105523975I-1J709975D01*
G01*
X102430001Y-105523975D02*
G75*
G03*
X103140001Y-106233999I709999J-25D01*
G01*
X213900001Y-106233975D02*
X214650001Y-106233975D01*
X91070001Y-105523975D02*
G75*
G03*
X91780001Y-106233999I709999J-25D01*
G01*
X89650001Y-88493975D02*
G75*
G02*
X90360001Y-87784001I709999J-25D01*
G01*
X90360001Y-87783975D02*
G75*
G02*
X91070025Y-88493975I-1J-710025D01*
G01*
X108820001Y-106233975D02*
G75*
G03*
X109529975Y-105523975I-1J709975D01*
G01*
X120180001Y-106233975D02*
G75*
G03*
X120889975Y-105523975I-1J709975D01*
G01*
X86810001Y-88493975D02*
G75*
G02*
X87520001Y-87784001I709999J-25D01*
G01*
X103140001Y-106233975D02*
G75*
G03*
X103849975Y-105523975I-1J709975D01*
G01*
X86100001Y-106233975D02*
G75*
G03*
X86809975Y-105523975I-1J709975D01*
G01*
X96040001Y-87783975D02*
G75*
G02*
X96750025Y-88493975I-1J-710025D01*
G01*
X160650001Y-105523975D02*
X160650001Y-88493975D01*
X129410001Y-88493975D02*
G75*
G02*
X130120001Y-87784001I709999J-25D01*
G01*
X123730001Y-105523975D02*
X123730001Y-88793975D01*
X189050001Y-105523975D02*
X189050001Y-88493975D01*
X197570001Y-105523975D02*
X197570001Y-88493975D01*
X194730001Y-105523975D02*
X194730001Y-88493975D01*
X208930001Y-105523975D02*
X208930001Y-88493975D01*
X201830001Y-88493975D02*
X201830001Y-105523975D01*
X207510001Y-88493975D02*
X207510001Y-105523975D01*
X200410001Y-105523975D02*
X200410001Y-88493975D01*
X213190001Y-88493975D02*
X213190001Y-105523975D01*
X191890001Y-105523975D02*
X191890001Y-88493975D01*
X184790001Y-88493975D02*
X184790001Y-105523975D01*
X167750001Y-88493975D02*
X167750001Y-105523975D01*
X179110001Y-88493975D02*
X179110001Y-105523975D01*
X172010001Y-105523975D02*
X172010001Y-88493975D01*
X106690001Y-105523975D02*
X106690001Y-88493975D01*
X159230001Y-88493975D02*
X159230001Y-105523975D01*
X119470001Y-89943975D02*
X119470001Y-105523975D01*
X157810001Y-105523975D02*
X157810001Y-88493975D01*
X108110001Y-88493975D02*
X108110001Y-105523975D01*
X174850001Y-105523975D02*
X174850001Y-88493975D01*
X154970001Y-105523975D02*
X154970001Y-88493975D01*
X102430001Y-88493975D02*
X102430001Y-105523975D01*
X170590001Y-88493975D02*
X170590001Y-105523975D01*
X122310001Y-90743975D02*
X122310001Y-105523975D01*
X145030001Y-88493975D02*
X145030001Y-105523975D01*
X118050001Y-105523975D02*
X118050001Y-89943975D01*
X103850001Y-105523975D02*
X103850001Y-88493975D01*
X101010001Y-105523975D02*
X101010001Y-88493975D01*
X177690001Y-105523975D02*
X177690001Y-88493975D01*
X125150001Y-88793975D02*
X125150001Y-105523975D01*
X156390001Y-88493975D02*
X156390001Y-105523975D01*
X152130001Y-105523975D02*
X152130001Y-90943975D01*
X183370001Y-105523975D02*
X183370001Y-88493975D01*
X133670001Y-88493975D02*
X133670001Y-105523975D01*
X166330001Y-105523975D02*
X166330001Y-88493975D01*
X135090001Y-105523975D02*
X135090001Y-88493975D01*
X115210001Y-105523975D02*
X115210001Y-88493975D01*
X96750001Y-88493975D02*
X96750001Y-105523975D01*
X143610001Y-105523975D02*
X143610001Y-88493975D01*
X112370001Y-105523975D02*
X112370001Y-88493975D01*
X164910001Y-88493975D02*
X164910001Y-105523975D01*
X136510001Y-88493975D02*
X136510001Y-105523975D01*
X132250001Y-105523975D02*
X132250001Y-88493975D01*
X113790001Y-88493975D02*
X113790001Y-105523975D01*
X150710001Y-91193975D02*
X150710001Y-105523975D01*
X142190001Y-88493975D02*
X142190001Y-105523975D01*
X129410001Y-105523975D02*
X129410001Y-88493975D01*
X116630001Y-88493975D02*
X116630001Y-105523975D01*
X126570001Y-105523975D02*
X126570001Y-88493975D01*
X190470001Y-88493975D02*
X190470001Y-105523975D01*
X187630001Y-88493975D02*
X187630001Y-105523975D01*
X181950001Y-88493975D02*
X181950001Y-105523975D01*
X186210001Y-105523975D02*
X186210001Y-88493975D01*
X176270001Y-88493975D02*
X176270001Y-105523975D01*
X203250001Y-105523975D02*
X203250001Y-88493975D01*
X137930001Y-105523975D02*
X137930001Y-88493975D01*
X213190001Y-105523975D02*
G75*
G03*
X213900001Y-106233999I709999J-25D01*
G01*
X212480001Y-87783975D02*
G75*
G02*
X213190025Y-88493975I-1J-710025D01*
G01*
X211060001Y-106233975D02*
G75*
G03*
X211769975Y-105523975I-1J709975D01*
G01*
X196150001Y-105523975D02*
G75*
G03*
X196860001Y-106233999I709999J-25D01*
G01*
X201120001Y-87783975D02*
G75*
G02*
X201830025Y-88493975I-1J-710025D01*
G01*
X209640001Y-87783975D02*
G75*
G02*
X210350025Y-88493975I-1J-710025D01*
G01*
X202540001Y-106233975D02*
G75*
G03*
X203249975Y-105523975I-1J709975D01*
G01*
X203960001Y-87783975D02*
G75*
G02*
X204670025Y-88493975I-1J-710025D01*
G01*
X182660001Y-106233975D02*
G75*
G03*
X183369975Y-105523975I-1J709975D01*
G01*
X203250001Y-88493975D02*
G75*
G02*
X203960001Y-87784001I709999J-25D01*
G01*
X201830001Y-105523975D02*
G75*
G03*
X202540001Y-106233999I709999J-25D01*
G01*
X194730001Y-88493975D02*
G75*
G02*
X195440001Y-87784001I709999J-25D01*
G01*
X192600001Y-87783975D02*
G75*
G02*
X193310025Y-88493975I-1J-710025D01*
G01*
X204670001Y-88493975D02*
X204670001Y-105523975D01*
X98170001Y-105523975D02*
X98170001Y-88493975D01*
X200410001Y-88493975D02*
G75*
G02*
X201120001Y-87784001I709999J-25D01*
G01*
X198280001Y-87783975D02*
G75*
G02*
X198990025Y-88493975I-1J-710025D01*
G01*
X153550001Y-90943975D02*
X153550001Y-105523975D01*
X186920001Y-87783975D02*
G75*
G02*
X187630025Y-88493975I-1J-710025D01*
G01*
X184080001Y-87783975D02*
G75*
G02*
X184790025Y-88493975I-1J-710025D01*
G01*
X208930001Y-88493975D02*
G75*
G02*
X209640001Y-87784001I709999J-25D01*
G01*
X92490001Y-105523975D02*
X92490001Y-88493975D01*
X211770001Y-88493975D02*
G75*
G02*
X212480001Y-87784001I709999J-25D01*
G01*
X173430001Y-88493975D02*
X173430001Y-105523975D01*
X206800001Y-87783975D02*
G75*
G02*
X207510025Y-88493975I-1J-710025D01*
G01*
X205380001Y-106233975D02*
G75*
G03*
X206089975Y-105523975I-1J709975D01*
G01*
X189760001Y-87783975D02*
G75*
G02*
X190470025Y-88493975I-1J-710025D01*
G01*
X185500001Y-106233975D02*
G75*
G03*
X186209975Y-105523975I-1J709975D01*
G01*
X95330001Y-105523975D02*
X95330001Y-88493975D01*
X196860001Y-106233975D02*
G75*
G03*
X197569975Y-105523975I-1J709975D01*
G01*
X93910001Y-88493975D02*
X93910001Y-105523975D01*
X198990001Y-105523975D02*
G75*
G03*
X199700001Y-106233999I709999J-25D01*
G01*
X91070001Y-88493975D02*
X91070001Y-105523975D01*
X193310001Y-105523975D02*
G75*
G03*
X194020001Y-106233999I709999J-25D01*
G01*
X187630001Y-105523975D02*
G75*
G03*
X188340001Y-106233999I709999J-25D01*
G01*
X210350001Y-105523975D02*
G75*
G03*
X211060001Y-106233999I709999J-25D01*
G01*
X89650001Y-105523975D02*
X89650001Y-88493975D01*
X86810001Y-105523975D02*
X86810001Y-88493975D01*
X110950001Y-88493975D02*
X110950001Y-105523975D01*
X207510001Y-105523975D02*
G75*
G03*
X208220001Y-106233999I709999J-25D01*
G01*
X99590001Y-88493975D02*
X99590001Y-105523975D01*
X206090001Y-88493975D02*
G75*
G02*
X206800001Y-87784001I709999J-25D01*
G01*
X105270001Y-88493975D02*
X105270001Y-105523975D01*
X147870001Y-88843975D02*
X147870001Y-105523975D01*
X189050001Y-88493975D02*
G75*
G02*
X189760001Y-87784001I709999J-25D01*
G01*
X190470001Y-105523975D02*
G75*
G03*
X191180001Y-106233999I709999J-25D01*
G01*
X162070001Y-105523975D02*
G75*
G03*
X162780001Y-106233999I709999J-25D01*
G01*
X160650001Y-88493975D02*
G75*
G02*
X161360001Y-87784001I709999J-25D01*
G01*
X172720001Y-87783975D02*
G75*
G02*
X173430025Y-88493975I-1J-710025D01*
G01*
X169170001Y-88493975D02*
G75*
G02*
X169880001Y-87784001I709999J-25D01*
G01*
X153550001Y-105523975D02*
G75*
G03*
X154260001Y-106233999I709999J-25D01*
G01*
X179110001Y-105523975D02*
G75*
G03*
X179820001Y-106233999I709999J-25D01*
G01*
X168460001Y-106233975D02*
G75*
G03*
X169169975Y-105523975I-1J709975D01*
G01*
X156390001Y-105523975D02*
G75*
G03*
X157100001Y-106233999I709999J-25D01*
G01*
X154970001Y-88493975D02*
G75*
G02*
X155680001Y-87784001I709999J-25D01*
G01*
X181240001Y-87783975D02*
G75*
G02*
X181950025Y-88493975I-1J-710025D01*
G01*
X154260001Y-106233975D02*
G75*
G03*
X154969975Y-105523975I-1J709975D01*
G01*
X181950001Y-105523975D02*
G75*
G03*
X182660001Y-106233999I709999J-25D01*
G01*
X158520001Y-87783975D02*
G75*
G02*
X159230025Y-88493975I-1J-710025D01*
G01*
X179820001Y-106233975D02*
G75*
G03*
X180529975Y-105523975I-1J709975D01*
G01*
X177690001Y-88493975D02*
G75*
G02*
X178400001Y-87784001I709999J-25D01*
G01*
X164910001Y-105523975D02*
G75*
G03*
X165620001Y-106233999I709999J-25D01*
G01*
X149290001Y-105523975D02*
X149290001Y-91193975D01*
X178400001Y-87783975D02*
G75*
G02*
X179110025Y-88493975I-1J-710025D01*
G01*
X176980001Y-106233975D02*
G75*
G03*
X177689975Y-105523975I-1J709975D01*
G01*
X188340001Y-106233975D02*
G75*
G03*
X189049975Y-105523975I-1J709975D01*
G01*
X176270001Y-105523975D02*
G75*
G03*
X176980001Y-106233999I709999J-25D01*
G01*
X199700001Y-106233975D02*
G75*
G03*
X200409975Y-105523975I-1J709975D01*
G01*
X159940001Y-106233975D02*
G75*
G03*
X160649975Y-105523975I-1J709975D01*
G01*
X194020001Y-106233975D02*
G75*
G03*
X194729975Y-105523975I-1J709975D01*
G01*
X159230001Y-105523975D02*
G75*
G03*
X159940001Y-106233999I709999J-25D01*
G01*
X157100001Y-106233975D02*
G75*
G03*
X157809975Y-105523975I-1J709975D01*
G01*
X155680001Y-87783975D02*
G75*
G02*
X156390025Y-88493975I-1J-710025D01*
G01*
X183370001Y-88493975D02*
G75*
G02*
X184080001Y-87784001I709999J-25D01*
G01*
X127990001Y-88493975D02*
X127990001Y-105523975D01*
X174850001Y-88493975D02*
G75*
G02*
X175560001Y-87784001I709999J-25D01*
G01*
X173430001Y-105523975D02*
G75*
G03*
X174140001Y-106233999I709999J-25D01*
G01*
X180530001Y-88493975D02*
G75*
G02*
X181240001Y-87784001I709999J-25D01*
G01*
X172010001Y-88493975D02*
G75*
G02*
X172720001Y-87784001I709999J-25D01*
G01*
X186210001Y-88493975D02*
G75*
G02*
X186920001Y-87784001I709999J-25D01*
G01*
X167040001Y-87783975D02*
G75*
G02*
X167750025Y-88493975I-1J-710025D01*
G01*
X162780001Y-106233975D02*
G75*
G03*
X163489975Y-105523975I-1J709975D01*
G01*
X166330001Y-88493975D02*
G75*
G02*
X167040001Y-87784001I709999J-25D01*
G01*
X165620001Y-106233975D02*
G75*
G03*
X166329975Y-105523975I-1J709975D01*
G01*
X197570001Y-88493975D02*
G75*
G02*
X198280001Y-87784001I709999J-25D01*
G01*
X169880001Y-87783975D02*
G75*
G02*
X170590025Y-88493975I-1J-710025D01*
G01*
X167750001Y-105523975D02*
G75*
G03*
X168460001Y-106233999I709999J-25D01*
G01*
X130830001Y-88493975D02*
X130830001Y-105523975D01*
X184790001Y-105523975D02*
G75*
G03*
X185500001Y-106233999I709999J-25D01*
G01*
X171300001Y-106233975D02*
G75*
G03*
X172009975Y-105523975I-1J709975D01*
G01*
X164200001Y-87783975D02*
G75*
G02*
X164910025Y-88493975I-1J-710025D01*
G01*
X162070001Y-88493975D02*
X162070001Y-105523975D01*
X148580001Y-106233975D02*
G75*
G03*
X149289975Y-105523975I-1J709975D01*
G01*
X147870001Y-105523975D02*
G75*
G03*
X148580001Y-106233999I709999J-25D01*
G01*
X147160001Y-88133975D02*
G75*
G02*
X147870025Y-88843975I-1J-710025D01*
G01*
X146450001Y-88843975D02*
G75*
G02*
X147160001Y-88134001I709999J-25D01*
G01*
X145740001Y-106233975D02*
G75*
G03*
X146449975Y-105523975I-1J709975D01*
G01*
X143610001Y-88493975D02*
G75*
G02*
X144320001Y-87784001I709999J-25D01*
G01*
X152130001Y-90943975D02*
G75*
G02*
X152840001Y-90234001I709999J-25D01*
G01*
X208220001Y-106233975D02*
G75*
G03*
X208929975Y-105523975I-1J709975D01*
G01*
X142190001Y-105523975D02*
G75*
G03*
X142900001Y-106233999I709999J-25D01*
G01*
X151420001Y-106233975D02*
G75*
G03*
X152129975Y-105523975I-1J709975D01*
G01*
X150710001Y-105523975D02*
G75*
G03*
X151420001Y-106233999I709999J-25D01*
G01*
X142900001Y-106233975D02*
G75*
G03*
X143609975Y-105523975I-1J709975D01*
G01*
X175560001Y-87783975D02*
G75*
G02*
X176270025Y-88493975I-1J-710025D01*
G01*
X145030001Y-105523975D02*
G75*
G03*
X145740001Y-106233999I709999J-25D01*
G01*
X150000001Y-90483975D02*
G75*
G02*
X150710025Y-91193975I-1J-710025D01*
G01*
X180530001Y-105523975D02*
X180530001Y-88493975D01*
X146450001Y-105523975D02*
X146450001Y-88843975D01*
X141480001Y-87783975D02*
G75*
G02*
X142190025Y-88493975I-1J-710025D01*
G01*
X140060001Y-106233975D02*
G75*
G03*
X140769975Y-105523975I-1J709975D01*
G01*
X132250001Y-88493975D02*
G75*
G02*
X132960001Y-87784001I709999J-25D01*
G01*
X174140001Y-106233975D02*
G75*
G03*
X174849975Y-105523975I-1J709975D01*
G01*
X152840001Y-90233975D02*
G75*
G02*
X153550025Y-90943975I-1J-710025D01*
G01*
X132960001Y-87783975D02*
G75*
G02*
X133670025Y-88493975I-1J-710025D01*
G01*
X125150001Y-105523975D02*
G75*
G03*
X125860001Y-106233999I709999J-25D01*
G01*
X139350001Y-105523975D02*
G75*
G03*
X140060001Y-106233999I709999J-25D01*
G01*
X138640001Y-87783975D02*
G75*
G02*
X139350025Y-88493975I-1J-710025D01*
G01*
X131540001Y-106233975D02*
G75*
G03*
X132249975Y-105523975I-1J709975D01*
G01*
X163490001Y-105523975D02*
X163490001Y-88493975D01*
X198990001Y-88493975D02*
X198990001Y-105523975D01*
X127280001Y-87783975D02*
G75*
G02*
X127990025Y-88493975I-1J-710025D01*
G01*
X136510001Y-105523975D02*
G75*
G03*
X137220001Y-106233999I709999J-25D01*
G01*
X135800001Y-87783975D02*
G75*
G02*
X136510025Y-88493975I-1J-710025D01*
G01*
X128700001Y-106233975D02*
G75*
G03*
X129409975Y-105523975I-1J709975D01*
G01*
X133670001Y-105523975D02*
G75*
G03*
X134380001Y-106233999I709999J-25D01*
G01*
X195440001Y-87783975D02*
G75*
G02*
X196150025Y-88493975I-1J-710025D01*
G01*
X135090001Y-88493975D02*
G75*
G02*
X135800001Y-87784001I709999J-25D01*
G01*
X130120001Y-87783975D02*
G75*
G02*
X130830025Y-88493975I-1J-710025D01*
G01*
X125860001Y-106233975D02*
G75*
G03*
X126569975Y-105523975I-1J709975D01*
G01*
X124440001Y-88083975D02*
G75*
G02*
X125150025Y-88793975I-1J-710025D01*
G01*
X126570001Y-88493975D02*
G75*
G02*
X127280001Y-87784001I709999J-25D01*
G01*
X140770001Y-88493975D02*
G75*
G02*
X141480001Y-87784001I709999J-25D01*
G01*
X149290001Y-91193975D02*
G75*
G02*
X150000001Y-90484001I709999J-25D01*
G01*
X163490001Y-88493975D02*
G75*
G02*
X164200001Y-87784001I709999J-25D01*
G01*
X137930001Y-88493975D02*
G75*
G02*
X138640001Y-87784001I709999J-25D01*
G01*
X146410001Y-108323975D02*
X146410001Y-140843975D01*
X87070001Y-137893975D02*
X87070001Y-108323975D01*
X176770001Y-108323975D02*
X176770001Y-140843975D01*
X129850001Y-108323975D02*
X129850001Y-140843975D01*
X171250001Y-108323975D02*
X171250001Y-140843975D01*
X167110001Y-140843975D02*
X167110001Y-108323975D01*
X92590001Y-140843975D02*
X92590001Y-108323975D01*
X98110001Y-140843975D02*
X98110001Y-108323975D01*
X120190001Y-140843975D02*
X120190001Y-108323975D01*
X132610001Y-108323975D02*
X132610001Y-140843975D01*
X127090001Y-108323975D02*
X127090001Y-140843975D01*
X169870001Y-140843975D02*
X169870001Y-108323975D01*
X110530001Y-108323975D02*
X110530001Y-140843975D01*
X135370001Y-108323975D02*
X135370001Y-140843975D01*
X153310001Y-140843975D02*
X153310001Y-108323975D01*
X105010001Y-108323975D02*
X105010001Y-140843975D01*
X142270001Y-140843975D02*
X142270001Y-108323975D01*
X160210001Y-108323975D02*
X160210001Y-140843975D01*
X143650001Y-108323975D02*
X143650001Y-140843975D01*
X180910001Y-140843975D02*
X180910001Y-108323975D01*
X145030001Y-140843975D02*
X145030001Y-108323975D01*
X175390001Y-140843975D02*
X175390001Y-108323975D01*
X107770001Y-108323975D02*
X107770001Y-140843975D01*
X136750001Y-140843975D02*
X136750001Y-108323975D01*
X100870001Y-140843975D02*
X100870001Y-108323975D01*
X116050001Y-108323975D02*
X116050001Y-140843975D01*
X102250001Y-108323975D02*
X102250001Y-140843975D01*
X109150001Y-140843975D02*
X109150001Y-108323975D01*
X149170001Y-108323975D02*
X149170001Y-140843975D01*
X140890001Y-108323975D02*
X140890001Y-140843975D01*
X179530001Y-108323975D02*
X179530001Y-140843975D01*
X157450001Y-108323975D02*
X157450001Y-140843975D01*
X182290001Y-108323975D02*
X182290001Y-140843975D01*
X95350001Y-140843975D02*
X95350001Y-108323975D01*
X124330001Y-108323975D02*
X124330001Y-140843975D01*
X133990001Y-140843975D02*
X133990001Y-108323975D01*
X147790001Y-140843975D02*
X147790001Y-108323975D01*
X151930001Y-108323975D02*
X151930001Y-140843975D01*
X154690001Y-108323975D02*
X154690001Y-140843975D01*
X164350001Y-140843975D02*
X164350001Y-108323975D01*
X165730001Y-108323975D02*
X165730001Y-140843975D01*
X168490001Y-108323975D02*
X168490001Y-140843975D01*
X86380001Y-107633975D02*
X86100001Y-107633975D01*
X89830001Y-140643975D02*
X89830001Y-108323975D01*
X161590001Y-140843975D02*
X161590001Y-108323975D01*
X93970001Y-108323975D02*
X93970001Y-140843975D01*
X96730001Y-108323975D02*
X96730001Y-140843975D01*
X138130001Y-108323975D02*
X138130001Y-140843975D01*
X113290001Y-108323975D02*
X113290001Y-140843975D01*
X95350001Y-108323975D02*
G75*
G03*
X94660001Y-107633999I-690001J-25D01*
G01*
X197470001Y-140843975D02*
X197470001Y-108323975D01*
X207130001Y-108323975D02*
X207130001Y-140843975D01*
X209890001Y-108323975D02*
X209890001Y-140843975D01*
X211270001Y-140393975D02*
X211270001Y-108323975D01*
X91210001Y-140643975D02*
G75*
G02*
X90520001Y-141334001I-690001J-25D01*
G01*
X87760001Y-138583975D02*
G75*
G02*
X87070025Y-137893975I-1J689975D01*
G01*
X89140001Y-107633975D02*
G75*
G03*
X88449975Y-108323975I-1J-690025D01*
G01*
X96040001Y-141533975D02*
G75*
G02*
X95350025Y-140843975I-1J689975D01*
G01*
X91900001Y-107633975D02*
G75*
G03*
X91209975Y-108323975I-1J-690025D01*
G01*
X183670001Y-140843975D02*
X183670001Y-108323975D01*
X185050001Y-108323975D02*
X185050001Y-140843975D01*
X186430001Y-140843975D02*
X186430001Y-108323975D01*
X92590001Y-108323975D02*
G75*
G03*
X91900001Y-107633999I-690001J-25D01*
G01*
X187810001Y-108323975D02*
X187810001Y-140843975D01*
X189190001Y-140843975D02*
X189190001Y-108323975D01*
X190570001Y-108323975D02*
X190570001Y-140843975D01*
X193330001Y-108323975D02*
X193330001Y-140843975D01*
X196090001Y-108323975D02*
X196090001Y-140843975D01*
X200230001Y-140843975D02*
X200230001Y-108323975D01*
X201610001Y-108323975D02*
X201610001Y-140843975D01*
X204370001Y-108323975D02*
X204370001Y-140843975D01*
X205750001Y-140843975D02*
X205750001Y-108323975D01*
X208510001Y-140843975D02*
X208510001Y-108323975D01*
X212650001Y-108323975D02*
X212650001Y-140393975D01*
X214030001Y-137643975D02*
X214030001Y-108323975D01*
X88450001Y-137893975D02*
G75*
G02*
X87760001Y-138584001I-690001J-25D01*
G01*
X215410001Y-108323975D02*
X215410001Y-137643975D01*
X93970001Y-140843975D02*
G75*
G02*
X93280001Y-141534001I-690001J-25D01*
G01*
X94660001Y-107633975D02*
G75*
G03*
X93969975Y-108323975I-1J-690025D01*
G01*
X88450001Y-108323975D02*
X88450001Y-137893975D01*
X121570001Y-140843975D02*
G75*
G02*
X120880001Y-141534001I-690001J-25D01*
G01*
X118810001Y-140843975D02*
G75*
G02*
X118120001Y-141534001I-690001J-25D01*
G01*
X119500001Y-107633975D02*
G75*
G03*
X118809975Y-108323975I-1J-690025D01*
G01*
X120190001Y-108323975D02*
G75*
G03*
X119500001Y-107633999I-690001J-25D01*
G01*
X120880001Y-141533975D02*
G75*
G02*
X120190025Y-140843975I-1J689975D01*
G01*
X129160001Y-141533975D02*
G75*
G02*
X128470025Y-140843975I-1J689975D01*
G01*
X139510001Y-140843975D02*
X139510001Y-108323975D01*
X127780001Y-107633975D02*
G75*
G03*
X127089975Y-108323975I-1J-690025D01*
G01*
X129850001Y-140843975D02*
G75*
G02*
X129160001Y-141534001I-690001J-25D01*
G01*
X125020001Y-107633975D02*
G75*
G03*
X124329975Y-108323975I-1J-690025D01*
G01*
X127090001Y-140843975D02*
G75*
G02*
X126400001Y-141534001I-690001J-25D01*
G01*
X97420001Y-107633975D02*
G75*
G03*
X96729975Y-108323975I-1J-690025D01*
G01*
X109150001Y-108323975D02*
G75*
G03*
X108460001Y-107633999I-690001J-25D01*
G01*
X131230001Y-108323975D02*
G75*
G03*
X130540001Y-107633999I-690001J-25D01*
G01*
X111910001Y-108323975D02*
G75*
G03*
X111220001Y-107633999I-690001J-25D01*
G01*
X162970001Y-108323975D02*
X162970001Y-140843975D01*
X123640001Y-141533975D02*
G75*
G02*
X122950025Y-140843975I-1J689975D01*
G01*
X202990001Y-140843975D02*
X202990001Y-108323975D01*
X106390001Y-140843975D02*
X106390001Y-108323975D01*
X118120001Y-141533975D02*
G75*
G02*
X117430025Y-140843975I-1J689975D01*
G01*
X98800001Y-141533975D02*
G75*
G02*
X98110025Y-140843975I-1J689975D01*
G01*
X100180001Y-107633975D02*
G75*
G03*
X99489975Y-108323975I-1J-690025D01*
G01*
X114670001Y-140843975D02*
X114670001Y-108323975D01*
X100870001Y-108323975D02*
G75*
G03*
X100180001Y-107633999I-690001J-25D01*
G01*
X112600001Y-141533975D02*
G75*
G02*
X111910025Y-140843975I-1J689975D01*
G01*
X101560001Y-141533975D02*
G75*
G02*
X100870025Y-140843975I-1J689975D01*
G01*
X131230001Y-140843975D02*
X131230001Y-108323975D01*
X122950001Y-108323975D02*
G75*
G03*
X122260001Y-107633999I-690001J-25D01*
G01*
X128470001Y-108323975D02*
G75*
G03*
X127780001Y-107633999I-690001J-25D01*
G01*
X109840001Y-141533975D02*
G75*
G02*
X109150025Y-140843975I-1J689975D01*
G01*
X125710001Y-140843975D02*
X125710001Y-108323975D01*
X104320001Y-141533975D02*
G75*
G02*
X103630025Y-140843975I-1J689975D01*
G01*
X105700001Y-107633975D02*
G75*
G03*
X105009975Y-108323975I-1J-690025D01*
G01*
X122260001Y-107633975D02*
G75*
G03*
X121569975Y-108323975I-1J-690025D01*
G01*
X107770001Y-140843975D02*
G75*
G02*
X107080001Y-141534001I-690001J-25D01*
G01*
X93280001Y-141533975D02*
G75*
G02*
X92590025Y-140843975I-1J689975D01*
G01*
X108460001Y-107633975D02*
G75*
G03*
X107769975Y-108323975I-1J-690025D01*
G01*
X116050001Y-140843975D02*
G75*
G02*
X115360001Y-141534001I-690001J-25D01*
G01*
X91210001Y-108323975D02*
X91210001Y-140643975D01*
X122950001Y-140843975D02*
X122950001Y-108323975D01*
X117430001Y-108323975D02*
G75*
G03*
X116740001Y-107633999I-690001J-25D01*
G01*
X131920001Y-141533975D02*
G75*
G02*
X131230025Y-140843975I-1J689975D01*
G01*
X102250001Y-140843975D02*
G75*
G02*
X101560001Y-141534001I-690001J-25D01*
G01*
X125710001Y-108323975D02*
G75*
G03*
X125020001Y-107633999I-690001J-25D01*
G01*
X102940001Y-107633975D02*
G75*
G03*
X102249975Y-108323975I-1J-690025D01*
G01*
X107080001Y-141533975D02*
G75*
G02*
X106390025Y-140843975I-1J689975D01*
G01*
X103630001Y-140843975D02*
X103630001Y-108323975D01*
X110530001Y-140843975D02*
G75*
G02*
X109840001Y-141534001I-690001J-25D01*
G01*
X111220001Y-107633975D02*
G75*
G03*
X110529975Y-108323975I-1J-690025D01*
G01*
X124330001Y-140843975D02*
G75*
G02*
X123640001Y-141534001I-690001J-25D01*
G01*
X132610001Y-140843975D02*
G75*
G02*
X131920001Y-141534001I-690001J-25D01*
G01*
X113290001Y-140843975D02*
G75*
G02*
X112600001Y-141534001I-690001J-25D01*
G01*
X116740001Y-107633975D02*
G75*
G03*
X116049975Y-108323975I-1J-690025D01*
G01*
X178840001Y-141533975D02*
G75*
G02*
X178150025Y-140843975I-1J689975D01*
G01*
X171250001Y-140843975D02*
G75*
G02*
X170560001Y-141534001I-690001J-25D01*
G01*
X180910001Y-108323975D02*
G75*
G03*
X180220001Y-107633999I-690001J-25D01*
G01*
X171940001Y-107633975D02*
G75*
G03*
X171249975Y-108323975I-1J-690025D01*
G01*
X172630001Y-108323975D02*
G75*
G03*
X171940001Y-107633999I-690001J-25D01*
G01*
X178150001Y-108323975D02*
G75*
G03*
X177460001Y-107633999I-690001J-25D01*
G01*
X89830001Y-108323975D02*
G75*
G03*
X89140001Y-107633999I-690001J-25D01*
G01*
X180220001Y-107633975D02*
G75*
G03*
X179529975Y-108323975I-1J-690025D01*
G01*
X173320001Y-141533975D02*
G75*
G02*
X172630025Y-140843975I-1J689975D01*
G01*
X174700001Y-107633975D02*
G75*
G03*
X174009975Y-108323975I-1J-690025D01*
G01*
X169180001Y-107633975D02*
G75*
G03*
X168489975Y-108323975I-1J-690025D01*
G01*
X176080001Y-141533975D02*
G75*
G02*
X175390025Y-140843975I-1J689975D01*
G01*
X179530001Y-140843975D02*
G75*
G02*
X178840001Y-141534001I-690001J-25D01*
G01*
X175390001Y-108323975D02*
G75*
G03*
X174700001Y-107633999I-690001J-25D01*
G01*
X177460001Y-107633975D02*
G75*
G03*
X176769975Y-108323975I-1J-690025D01*
G01*
X183670001Y-108323975D02*
G75*
G03*
X182980001Y-107633999I-690001J-25D01*
G01*
X181600001Y-141533975D02*
G75*
G02*
X180910025Y-140843975I-1J689975D01*
G01*
X189880001Y-141533975D02*
G75*
G02*
X189190025Y-140843975I-1J689975D01*
G01*
X161590001Y-108323975D02*
G75*
G03*
X160900001Y-107633999I-690001J-25D01*
G01*
X182290001Y-140843975D02*
G75*
G02*
X181600001Y-141534001I-690001J-25D01*
G01*
X185050001Y-140843975D02*
G75*
G02*
X184360001Y-141534001I-690001J-25D01*
G01*
X185740001Y-107633975D02*
G75*
G03*
X185049975Y-108323975I-1J-690025D01*
G01*
X189190001Y-108323975D02*
G75*
G03*
X188500001Y-107633999I-690001J-25D01*
G01*
X190570001Y-140843975D02*
G75*
G02*
X189880001Y-141534001I-690001J-25D01*
G01*
X191260001Y-107633975D02*
G75*
G03*
X190569975Y-108323975I-1J-690025D01*
G01*
X192640001Y-141533975D02*
G75*
G02*
X191950025Y-140843975I-1J689975D01*
G01*
X201610001Y-140843975D02*
G75*
G02*
X200920001Y-141534001I-690001J-25D01*
G01*
X194710001Y-140843975D02*
X194710001Y-108323975D01*
X203680001Y-141533975D02*
G75*
G02*
X202990025Y-140843975I-1J689975D01*
G01*
X99490001Y-140843975D02*
G75*
G02*
X98800001Y-141534001I-690001J-25D01*
G01*
X193330001Y-140843975D02*
G75*
G02*
X192640001Y-141534001I-690001J-25D01*
G01*
X158830001Y-140843975D02*
X158830001Y-108323975D01*
X113980001Y-107633975D02*
G75*
G03*
X113289975Y-108323975I-1J-690025D01*
G01*
X186430001Y-108323975D02*
G75*
G03*
X185740001Y-107633999I-690001J-25D01*
G01*
X209200001Y-141533975D02*
G75*
G02*
X208510025Y-140843975I-1J689975D01*
G01*
X195400001Y-141533975D02*
G75*
G02*
X194710025Y-140843975I-1J689975D01*
G01*
X196780001Y-107633975D02*
G75*
G03*
X196089975Y-108323975I-1J-690025D01*
G01*
X207130001Y-140843975D02*
G75*
G02*
X206440001Y-141534001I-690001J-25D01*
G01*
X197470001Y-108323975D02*
G75*
G03*
X196780001Y-107633999I-690001J-25D01*
G01*
X199540001Y-107633975D02*
G75*
G03*
X198849975Y-108323975I-1J-690025D01*
G01*
X200230001Y-108323975D02*
G75*
G03*
X199540001Y-107633999I-690001J-25D01*
G01*
X187120001Y-141533975D02*
G75*
G02*
X186430025Y-140843975I-1J689975D01*
G01*
X207820001Y-107633975D02*
G75*
G03*
X207129975Y-108323975I-1J-690025D01*
G01*
X200920001Y-141533975D02*
G75*
G02*
X200230025Y-140843975I-1J689975D01*
G01*
X205750001Y-108323975D02*
G75*
G03*
X205060001Y-107633999I-690001J-25D01*
G01*
X198850001Y-108323975D02*
X198850001Y-140843975D01*
X211270001Y-108323975D02*
G75*
G03*
X210580001Y-107633999I-690001J-25D01*
G01*
X206440001Y-141533975D02*
G75*
G02*
X205750025Y-140843975I-1J689975D01*
G01*
X214030001Y-108323975D02*
G75*
G03*
X213340001Y-107633999I-690001J-25D01*
G01*
X209890001Y-140843975D02*
G75*
G02*
X209200001Y-141534001I-690001J-25D01*
G01*
X184360001Y-141533975D02*
G75*
G02*
X183670025Y-140843975I-1J689975D01*
G01*
X211960001Y-141083975D02*
G75*
G02*
X211270025Y-140393975I-1J689975D01*
G01*
X154690001Y-140843975D02*
G75*
G02*
X154000001Y-141534001I-690001J-25D01*
G01*
X202990001Y-108323975D02*
G75*
G03*
X202300001Y-107633999I-690001J-25D01*
G01*
X208510001Y-108323975D02*
G75*
G03*
X207820001Y-107633999I-690001J-25D01*
G01*
X198850001Y-140843975D02*
G75*
G02*
X198160001Y-141534001I-690001J-25D01*
G01*
X216100001Y-107633975D02*
G75*
G03*
X215409975Y-108323975I-1J-690025D01*
G01*
X106390001Y-108323975D02*
G75*
G03*
X105700001Y-107633999I-690001J-25D01*
G01*
X194020001Y-107633975D02*
G75*
G03*
X193329975Y-108323975I-1J-690025D01*
G01*
X202300001Y-107633975D02*
G75*
G03*
X201609975Y-108323975I-1J-690025D01*
G01*
X150550001Y-140843975D02*
X150550001Y-108323975D01*
X198160001Y-141533975D02*
G75*
G02*
X197470025Y-140843975I-1J689975D01*
G01*
X188500001Y-107633975D02*
G75*
G03*
X187809975Y-108323975I-1J-690025D01*
G01*
X156070001Y-140843975D02*
X156070001Y-108323975D01*
X191950001Y-108323975D02*
G75*
G03*
X191260001Y-107633999I-690001J-25D01*
G01*
X191950001Y-140843975D02*
X191950001Y-108323975D01*
X182980001Y-107633975D02*
G75*
G03*
X182289975Y-108323975I-1J-690025D01*
G01*
X215410001Y-137643975D02*
G75*
G02*
X214720001Y-138334001I-690001J-25D01*
G01*
X172630001Y-140843975D02*
X172630001Y-108323975D01*
X213340001Y-107633975D02*
G75*
G03*
X212649975Y-108323975I-1J-690025D01*
G01*
X194710001Y-108323975D02*
G75*
G03*
X194020001Y-107633999I-690001J-25D01*
G01*
X174010001Y-140843975D02*
G75*
G02*
X173320001Y-141534001I-690001J-25D01*
G01*
X205060001Y-107633975D02*
G75*
G03*
X204369975Y-108323975I-1J-690025D01*
G01*
X187810001Y-140843975D02*
G75*
G02*
X187120001Y-141534001I-690001J-25D01*
G01*
X176770001Y-140843975D02*
G75*
G02*
X176080001Y-141534001I-690001J-25D01*
G01*
X118810001Y-108323975D02*
X118810001Y-140843975D01*
X210580001Y-107633975D02*
G75*
G03*
X209889975Y-108323975I-1J-690025D01*
G01*
X204370001Y-140843975D02*
G75*
G02*
X203680001Y-141534001I-690001J-25D01*
G01*
X196090001Y-140843975D02*
G75*
G02*
X195400001Y-141534001I-690001J-25D01*
G01*
X90520001Y-141333975D02*
G75*
G02*
X89830025Y-140643975I-1J689975D01*
G01*
X212650001Y-140393975D02*
G75*
G02*
X211960001Y-141084001I-690001J-25D01*
G01*
X214720001Y-138333975D02*
G75*
G02*
X214030025Y-137643975I-1J689975D01*
G01*
X133990001Y-108323975D02*
G75*
G03*
X133300001Y-107633999I-690001J-25D01*
G01*
X117430001Y-140843975D02*
X117430001Y-108323975D01*
X134680001Y-141533975D02*
G75*
G02*
X133990025Y-140843975I-1J689975D01*
G01*
X103630001Y-108323975D02*
G75*
G03*
X102940001Y-107633999I-690001J-25D01*
G01*
X87070001Y-108323975D02*
G75*
G03*
X86380001Y-107633999I-690001J-25D01*
G01*
X133300001Y-107633975D02*
G75*
G03*
X132609975Y-108323975I-1J-690025D01*
G01*
X138820001Y-107633975D02*
G75*
G03*
X138129975Y-108323975I-1J-690025D01*
G01*
X139510001Y-108323975D02*
G75*
G03*
X138820001Y-107633999I-690001J-25D01*
G01*
X140200001Y-141533975D02*
G75*
G02*
X139510025Y-140843975I-1J689975D01*
G01*
X141580001Y-107633975D02*
G75*
G03*
X140889975Y-108323975I-1J-690025D01*
G01*
X142270001Y-108323975D02*
G75*
G03*
X141580001Y-107633999I-690001J-25D01*
G01*
X96730001Y-140843975D02*
G75*
G02*
X96040001Y-141534001I-690001J-25D01*
G01*
X143650001Y-140843975D02*
G75*
G02*
X142960001Y-141534001I-690001J-25D01*
G01*
X137440001Y-141533975D02*
G75*
G02*
X136750025Y-140843975I-1J689975D01*
G01*
X140890001Y-140843975D02*
G75*
G02*
X140200001Y-141534001I-690001J-25D01*
G01*
X136060001Y-107633975D02*
G75*
G03*
X135369975Y-108323975I-1J-690025D01*
G01*
X145720001Y-141533975D02*
G75*
G02*
X145030025Y-140843975I-1J689975D01*
G01*
X147100001Y-107633975D02*
G75*
G03*
X146409975Y-108323975I-1J-690025D01*
G01*
X147790001Y-108323975D02*
G75*
G03*
X147100001Y-107633999I-690001J-25D01*
G01*
X144340001Y-107633975D02*
G75*
G03*
X143649975Y-108323975I-1J-690025D01*
G01*
X174010001Y-108323975D02*
X174010001Y-140843975D01*
X145030001Y-108323975D02*
G75*
G03*
X144340001Y-107633999I-690001J-25D01*
G01*
X178150001Y-140843975D02*
X178150001Y-108323975D01*
X151240001Y-141533975D02*
G75*
G02*
X150550025Y-140843975I-1J689975D01*
G01*
X155380001Y-107633975D02*
G75*
G03*
X154689975Y-108323975I-1J-690025D01*
G01*
X136750001Y-108323975D02*
G75*
G03*
X136060001Y-107633999I-690001J-25D01*
G01*
X149170001Y-140843975D02*
G75*
G02*
X148480001Y-141534001I-690001J-25D01*
G01*
X151930001Y-140843975D02*
G75*
G02*
X151240001Y-141534001I-690001J-25D01*
G01*
X148480001Y-141533975D02*
G75*
G02*
X147790025Y-140843975I-1J689975D01*
G01*
X156070001Y-108323975D02*
G75*
G03*
X155380001Y-107633999I-690001J-25D01*
G01*
X153310001Y-108323975D02*
G75*
G03*
X152620001Y-107633999I-690001J-25D01*
G01*
X154000001Y-141533975D02*
G75*
G02*
X153310025Y-140843975I-1J689975D01*
G01*
X99490001Y-108323975D02*
X99490001Y-140843975D01*
X146410001Y-140843975D02*
G75*
G02*
X145720001Y-141534001I-690001J-25D01*
G01*
X135370001Y-140843975D02*
G75*
G02*
X134680001Y-141534001I-690001J-25D01*
G01*
X150550001Y-108323975D02*
G75*
G03*
X149860001Y-107633999I-690001J-25D01*
G01*
X152620001Y-107633975D02*
G75*
G03*
X151929975Y-108323975I-1J-690025D01*
G01*
X157450001Y-140843975D02*
G75*
G02*
X156760001Y-141534001I-690001J-25D01*
G01*
X138130001Y-140843975D02*
G75*
G02*
X137440001Y-141534001I-690001J-25D01*
G01*
X156760001Y-141533975D02*
G75*
G02*
X156070025Y-140843975I-1J689975D01*
G01*
X158140001Y-107633975D02*
G75*
G03*
X157449975Y-108323975I-1J-690025D01*
G01*
X158830001Y-108323975D02*
G75*
G03*
X158140001Y-107633999I-690001J-25D01*
G01*
X159520001Y-141533975D02*
G75*
G02*
X158830025Y-140843975I-1J689975D01*
G01*
X114670001Y-108323975D02*
G75*
G03*
X113980001Y-107633999I-690001J-25D01*
G01*
X130540001Y-107633975D02*
G75*
G03*
X129849975Y-108323975I-1J-690025D01*
G01*
X128470001Y-140843975D02*
X128470001Y-108323975D01*
X162970001Y-140843975D02*
G75*
G02*
X162280001Y-141534001I-690001J-25D01*
G01*
X160210001Y-140843975D02*
G75*
G02*
X159520001Y-141534001I-690001J-25D01*
G01*
X98110001Y-108323975D02*
G75*
G03*
X97420001Y-107633999I-690001J-25D01*
G01*
X142960001Y-141533975D02*
G75*
G02*
X142270025Y-140843975I-1J689975D01*
G01*
X149860001Y-107633975D02*
G75*
G03*
X149169975Y-108323975I-1J-690025D01*
G01*
X111910001Y-140843975D02*
X111910001Y-108323975D01*
X163660001Y-107633975D02*
G75*
G03*
X162969975Y-108323975I-1J-690025D01*
G01*
X126400001Y-141533975D02*
G75*
G02*
X125710025Y-140843975I-1J689975D01*
G01*
X165730001Y-140843975D02*
G75*
G02*
X165040001Y-141534001I-690001J-25D01*
G01*
X115360001Y-141533975D02*
G75*
G02*
X114670025Y-140843975I-1J689975D01*
G01*
X167800001Y-141533975D02*
G75*
G02*
X167110025Y-140843975I-1J689975D01*
G01*
X105010001Y-140843975D02*
G75*
G02*
X104320001Y-141534001I-690001J-25D01*
G01*
X169870001Y-108323975D02*
G75*
G03*
X169180001Y-107633999I-690001J-25D01*
G01*
X167110001Y-108323975D02*
G75*
G03*
X166420001Y-107633999I-690001J-25D01*
G01*
X160900001Y-107633975D02*
G75*
G03*
X160209975Y-108323975I-1J-690025D01*
G01*
X162280001Y-141533975D02*
G75*
G02*
X161590025Y-140843975I-1J689975D01*
G01*
X164350001Y-108323975D02*
G75*
G03*
X163660001Y-107633999I-690001J-25D01*
G01*
X165040001Y-141533975D02*
G75*
G02*
X164350025Y-140843975I-1J689975D01*
G01*
X166420001Y-107633975D02*
G75*
G03*
X165729975Y-108323975I-1J-690025D01*
G01*
X168490001Y-140843975D02*
G75*
G02*
X167800001Y-141534001I-690001J-25D01*
G01*
X121570001Y-108323975D02*
X121570001Y-140843975D01*
X170560001Y-141533975D02*
G75*
G02*
X169870025Y-140843975I-1J689975D01*
G01*
X170665001Y-65558975D02*
X170665001Y-38058975D01*
X116665001Y-65558975D02*
X116665001Y-38058975D01*
X104515001Y-38058975D02*
X104515001Y-65558975D01*
X127465001Y-65558975D02*
X127465001Y-38058975D01*
X153115001Y-38058975D02*
X153115001Y-65558975D01*
X169315001Y-38058975D02*
X169315001Y-65558975D01*
X126115001Y-38058975D02*
X126115001Y-65558975D01*
X158515001Y-38058975D02*
X158515001Y-65558975D01*
X154465001Y-65558975D02*
X154465001Y-38058975D01*
X91015001Y-38058975D02*
X91015001Y-65558975D01*
X166615001Y-38058975D02*
X166615001Y-65558975D01*
X167965001Y-65558975D02*
X167965001Y-38058975D01*
X120715001Y-38058975D02*
X120715001Y-65558975D01*
X214540001Y-37383975D02*
G75*
G02*
X215215025Y-38058975I-1J-675025D01*
G01*
X101815001Y-38058975D02*
X101815001Y-65558975D01*
X115315001Y-38058975D02*
X115315001Y-65558975D01*
X165265001Y-65558975D02*
X165265001Y-38058975D01*
X162565001Y-65558975D02*
X162565001Y-38058975D01*
X161215001Y-38058975D02*
X161215001Y-65558975D01*
X155815001Y-38058975D02*
X155815001Y-65558975D01*
X151765001Y-65558975D02*
X151765001Y-38058975D01*
X135565001Y-65558975D02*
X135565001Y-38058975D01*
X118015001Y-38058975D02*
X118015001Y-65558975D01*
X93715001Y-38058975D02*
X93715001Y-65558975D01*
X86965001Y-65558975D02*
X86965001Y-38058975D01*
X213190001Y-66233975D02*
G75*
G03*
X213864975Y-65558975I-1J674975D01*
G01*
X211165001Y-38058975D02*
G75*
G02*
X211840001Y-37384001I674999J-25D01*
G01*
X99115001Y-38058975D02*
X99115001Y-65558975D01*
X130165001Y-65558975D02*
X130165001Y-38058975D01*
X149065001Y-65558975D02*
X149065001Y-38058975D01*
X138265001Y-65558975D02*
X138265001Y-38058975D01*
X83500001Y-66233975D02*
X86290001Y-66233975D01*
X140965001Y-65558975D02*
X140965001Y-38058975D01*
X111265001Y-65558975D02*
X111265001Y-38058975D01*
X215215001Y-65558975D02*
G75*
G03*
X215890001Y-66233999I674999J-25D01*
G01*
X109915001Y-38058975D02*
X109915001Y-65558975D01*
X131515001Y-38058975D02*
X131515001Y-65558975D01*
X105865001Y-65558975D02*
X105865001Y-38058975D01*
X88315001Y-38058975D02*
X88315001Y-65558975D01*
X100465001Y-65558975D02*
X100465001Y-38058975D01*
X159865001Y-65558975D02*
X159865001Y-38058975D01*
X145015001Y-38058975D02*
X145015001Y-65558975D01*
X128815001Y-38058975D02*
X128815001Y-65558975D01*
X92365001Y-65558975D02*
X92365001Y-38058975D01*
X123415001Y-38058975D02*
X123415001Y-65558975D01*
X122065001Y-65558975D02*
X122065001Y-38058975D01*
X96415001Y-38058975D02*
X96415001Y-65558975D01*
X211840001Y-37383975D02*
G75*
G02*
X212515025Y-38058975I-1J-675025D01*
G01*
X134215001Y-38058975D02*
X134215001Y-65558975D01*
X119365001Y-65558975D02*
X119365001Y-38058975D01*
X172015001Y-38058975D02*
X172015001Y-65558975D01*
X182815001Y-65558975D02*
G75*
G03*
X183490001Y-66233999I674999J-25D01*
G01*
X126115001Y-65558975D02*
G75*
G03*
X126790001Y-66233999I674999J-25D01*
G01*
X125440001Y-37383975D02*
G75*
G02*
X126115025Y-38058975I-1J-675025D01*
G01*
X124765001Y-38058975D02*
G75*
G02*
X125440001Y-37384001I674999J-25D01*
G01*
X184840001Y-37383975D02*
G75*
G02*
X185515025Y-38058975I-1J-675025D01*
G01*
X140290001Y-66233975D02*
G75*
G03*
X140964975Y-65558975I-1J674975D01*
G01*
X130840001Y-37383975D02*
G75*
G02*
X131515025Y-38058975I-1J-675025D01*
G01*
X139615001Y-65558975D02*
G75*
G03*
X140290001Y-66233999I674999J-25D01*
G01*
X135565001Y-38058975D02*
G75*
G02*
X136240001Y-37384001I674999J-25D01*
G01*
X150415001Y-38058975D02*
X150415001Y-65558975D01*
X136240001Y-37383975D02*
G75*
G02*
X136915025Y-38058975I-1J-675025D01*
G01*
X130165001Y-38058975D02*
G75*
G02*
X130840001Y-37384001I674999J-25D01*
G01*
X134890001Y-66233975D02*
G75*
G03*
X135564975Y-65558975I-1J674975D01*
G01*
X133540001Y-37383975D02*
G75*
G02*
X134215025Y-38058975I-1J-675025D01*
G01*
X181465001Y-38058975D02*
G75*
G02*
X182140001Y-37384001I674999J-25D01*
G01*
X134215001Y-65558975D02*
G75*
G03*
X134890001Y-66233999I674999J-25D01*
G01*
X127465001Y-38058975D02*
G75*
G02*
X128140001Y-37384001I674999J-25D01*
G01*
X131515001Y-65558975D02*
G75*
G03*
X132190001Y-66233999I674999J-25D01*
G01*
X136915001Y-65558975D02*
G75*
G03*
X137590001Y-66233999I674999J-25D01*
G01*
X97765001Y-65558975D02*
X97765001Y-38058975D01*
X154465001Y-38058975D02*
G75*
G02*
X155140001Y-37384001I674999J-25D01*
G01*
X129490001Y-66233975D02*
G75*
G03*
X130164975Y-65558975I-1J674975D01*
G01*
X128140001Y-37383975D02*
G75*
G02*
X128815025Y-38058975I-1J-675025D01*
G01*
X147715001Y-65558975D02*
G75*
G03*
X148390001Y-66233999I674999J-25D01*
G01*
X138265001Y-38058975D02*
G75*
G02*
X138940001Y-37384001I674999J-25D01*
G01*
X145015001Y-65558975D02*
G75*
G03*
X145690001Y-66233999I674999J-25D01*
G01*
X144340001Y-37383975D02*
G75*
G02*
X145015025Y-38058975I-1J-675025D01*
G01*
X113965001Y-65558975D02*
X113965001Y-38058975D01*
X142315001Y-65558975D02*
G75*
G03*
X142990001Y-66233999I674999J-25D01*
G01*
X132865001Y-38058975D02*
G75*
G02*
X133540001Y-37384001I674999J-25D01*
G01*
X205090001Y-66233975D02*
G75*
G03*
X205764975Y-65558975I-1J674975D01*
G01*
X143665001Y-38058975D02*
G75*
G02*
X144340001Y-37384001I674999J-25D01*
G01*
X141640001Y-37383975D02*
G75*
G02*
X142315025Y-38058975I-1J-675025D01*
G01*
X157165001Y-65558975D02*
X157165001Y-38058975D01*
X173365001Y-38058975D02*
G75*
G02*
X174040001Y-37384001I674999J-25D01*
G01*
X213865001Y-38058975D02*
G75*
G02*
X214540001Y-37384001I674999J-25D01*
G01*
X138940001Y-37383975D02*
G75*
G02*
X139615025Y-38058975I-1J-675025D01*
G01*
X140965001Y-38058975D02*
G75*
G02*
X141640001Y-37384001I674999J-25D01*
G01*
X132190001Y-66233975D02*
G75*
G03*
X132864975Y-65558975I-1J674975D01*
G01*
X122065001Y-38058975D02*
G75*
G02*
X122740001Y-37384001I674999J-25D01*
G01*
X121390001Y-66233975D02*
G75*
G03*
X122064975Y-65558975I-1J674975D01*
G01*
X142990001Y-66233975D02*
G75*
G03*
X143664975Y-65558975I-1J674975D01*
G01*
X163915001Y-38058975D02*
X163915001Y-65558975D01*
X120040001Y-37383975D02*
G75*
G02*
X120715025Y-38058975I-1J-675025D01*
G01*
X118015001Y-65558975D02*
G75*
G03*
X118690001Y-66233999I674999J-25D01*
G01*
X118690001Y-66233975D02*
G75*
G03*
X119364975Y-65558975I-1J674975D01*
G01*
X208465001Y-65558975D02*
X208465001Y-38058975D01*
X119365001Y-38058975D02*
G75*
G02*
X120040001Y-37384001I674999J-25D01*
G01*
X117340001Y-37383975D02*
G75*
G02*
X118015025Y-38058975I-1J-675025D01*
G01*
X172015001Y-65558975D02*
G75*
G03*
X172690001Y-66233999I674999J-25D01*
G01*
X124765001Y-65558975D02*
X124765001Y-38058975D01*
X115315001Y-65558975D02*
G75*
G03*
X115990001Y-66233999I674999J-25D01*
G01*
X115990001Y-66233975D02*
G75*
G03*
X116664975Y-65558975I-1J674975D01*
G01*
X167290001Y-66233975D02*
G75*
G03*
X167964975Y-65558975I-1J674975D01*
G01*
X114640001Y-37383975D02*
G75*
G02*
X115315025Y-38058975I-1J-675025D01*
G01*
X193615001Y-65558975D02*
G75*
G03*
X194290001Y-66233999I674999J-25D01*
G01*
X98440001Y-37383975D02*
G75*
G02*
X99115025Y-38058975I-1J-675025D01*
G01*
X113965001Y-38058975D02*
G75*
G02*
X114640001Y-37384001I674999J-25D01*
G01*
X112615001Y-65558975D02*
G75*
G03*
X113290001Y-66233999I674999J-25D01*
G01*
X111940001Y-37383975D02*
G75*
G02*
X112615025Y-38058975I-1J-675025D01*
G01*
X111265001Y-38058975D02*
G75*
G02*
X111940001Y-37384001I674999J-25D01*
G01*
X132865001Y-65558975D02*
X132865001Y-38058975D01*
X107215001Y-65558975D02*
G75*
G03*
X107890001Y-66233999I674999J-25D01*
G01*
X124090001Y-66233975D02*
G75*
G03*
X124764975Y-65558975I-1J674975D01*
G01*
X128815001Y-65558975D02*
G75*
G03*
X129490001Y-66233999I674999J-25D01*
G01*
X147715001Y-38058975D02*
X147715001Y-65558975D01*
X97765001Y-38058975D02*
G75*
G02*
X98440001Y-37384001I674999J-25D01*
G01*
X107890001Y-66233975D02*
G75*
G03*
X108564975Y-65558975I-1J674975D01*
G01*
X102490001Y-66233975D02*
G75*
G03*
X103164975Y-65558975I-1J674975D01*
G01*
X105865001Y-38058975D02*
G75*
G02*
X106540001Y-37384001I674999J-25D01*
G01*
X151765001Y-38058975D02*
G75*
G02*
X152440001Y-37384001I674999J-25D01*
G01*
X107215001Y-38058975D02*
X107215001Y-65558975D01*
X210490001Y-66233975D02*
G75*
G03*
X211164975Y-65558975I-1J674975D01*
G01*
X101140001Y-37383975D02*
G75*
G02*
X101815025Y-38058975I-1J-675025D01*
G01*
X145690001Y-66233975D02*
G75*
G03*
X146364975Y-65558975I-1J674975D01*
G01*
X109240001Y-37383975D02*
G75*
G02*
X109915025Y-38058975I-1J-675025D01*
G01*
X136915001Y-38058975D02*
X136915001Y-65558975D01*
X99115001Y-65558975D02*
G75*
G03*
X99790001Y-66233999I674999J-25D01*
G01*
X197665001Y-38058975D02*
G75*
G02*
X198340001Y-37384001I674999J-25D01*
G01*
X126790001Y-66233975D02*
G75*
G03*
X127464975Y-65558975I-1J674975D01*
G01*
X104515001Y-65558975D02*
G75*
G03*
X105190001Y-66233999I674999J-25D01*
G01*
X123415001Y-65558975D02*
G75*
G03*
X124090001Y-66233999I674999J-25D01*
G01*
X100465001Y-38058975D02*
G75*
G02*
X101140001Y-37384001I674999J-25D01*
G01*
X99790001Y-66233975D02*
G75*
G03*
X100464975Y-65558975I-1J674975D01*
G01*
X177415001Y-65558975D02*
G75*
G03*
X178090001Y-66233999I674999J-25D01*
G01*
X106540001Y-37383975D02*
G75*
G02*
X107215025Y-38058975I-1J-675025D01*
G01*
X101815001Y-65558975D02*
G75*
G03*
X102490001Y-66233999I674999J-25D01*
G01*
X103840001Y-37383975D02*
G75*
G02*
X104515025Y-38058975I-1J-675025D01*
G01*
X112615001Y-38058975D02*
X112615001Y-65558975D01*
X108565001Y-65558975D02*
X108565001Y-38058975D01*
X110590001Y-66233975D02*
G75*
G03*
X111264975Y-65558975I-1J674975D01*
G01*
X103165001Y-38058975D02*
G75*
G02*
X103840001Y-37384001I674999J-25D01*
G01*
X137590001Y-66233975D02*
G75*
G03*
X138264975Y-65558975I-1J674975D01*
G01*
X215890001Y-66233975D02*
X216100001Y-66233975D01*
X97090001Y-66233975D02*
G75*
G03*
X97764975Y-65558975I-1J674975D01*
G01*
X96415001Y-65558975D02*
G75*
G03*
X97090001Y-66233999I674999J-25D01*
G01*
X157165001Y-38058975D02*
G75*
G02*
X157840001Y-37384001I674999J-25D01*
G01*
X95740001Y-37383975D02*
G75*
G02*
X96415025Y-38058975I-1J-675025D01*
G01*
X105190001Y-66233975D02*
G75*
G03*
X105864975Y-65558975I-1J674975D01*
G01*
X153790001Y-66233975D02*
G75*
G03*
X154464975Y-65558975I-1J674975D01*
G01*
X120715001Y-65558975D02*
G75*
G03*
X121390001Y-66233999I674999J-25D01*
G01*
X95065001Y-38058975D02*
G75*
G02*
X95740001Y-37384001I674999J-25D01*
G01*
X92365001Y-38058975D02*
G75*
G02*
X93040001Y-37384001I674999J-25D01*
G01*
X116665001Y-38058975D02*
G75*
G02*
X117340001Y-37384001I674999J-25D01*
G01*
X93715001Y-65558975D02*
G75*
G03*
X94390001Y-66233999I674999J-25D01*
G01*
X93040001Y-37383975D02*
G75*
G02*
X93715025Y-38058975I-1J-675025D01*
G01*
X109915001Y-65558975D02*
G75*
G03*
X110590001Y-66233999I674999J-25D01*
G01*
X87640001Y-37383975D02*
G75*
G02*
X88315025Y-38058975I-1J-675025D01*
G01*
X207115001Y-38058975D02*
X207115001Y-65558975D01*
X113290001Y-66233975D02*
G75*
G03*
X113964975Y-65558975I-1J674975D01*
G01*
X91015001Y-65558975D02*
G75*
G03*
X91690001Y-66233999I674999J-25D01*
G01*
X90340001Y-37383975D02*
G75*
G02*
X91015025Y-38058975I-1J-675025D01*
G01*
X176740001Y-37383975D02*
G75*
G02*
X177415025Y-38058975I-1J-675025D01*
G01*
X86965001Y-38058975D02*
G75*
G02*
X87640001Y-37384001I674999J-25D01*
G01*
X94390001Y-66233975D02*
G75*
G03*
X95064975Y-65558975I-1J674975D01*
G01*
X199015001Y-38058975D02*
X199015001Y-65558975D01*
X108565001Y-38058975D02*
G75*
G02*
X109240001Y-37384001I674999J-25D01*
G01*
X169315001Y-65558975D02*
G75*
G03*
X169990001Y-66233999I674999J-25D01*
G01*
X91690001Y-66233975D02*
G75*
G03*
X92364975Y-65558975I-1J674975D01*
G01*
X89665001Y-38058975D02*
G75*
G02*
X90340001Y-37384001I674999J-25D01*
G01*
X122740001Y-37383975D02*
G75*
G02*
X123415025Y-38058975I-1J-675025D01*
G01*
X86290001Y-66233975D02*
G75*
G03*
X86964975Y-65558975I-1J674975D01*
G01*
X88315001Y-65558975D02*
G75*
G03*
X88990001Y-66233999I674999J-25D01*
G01*
X88990001Y-66233975D02*
G75*
G03*
X89664975Y-65558975I-1J674975D01*
G01*
X207790001Y-66233975D02*
G75*
G03*
X208464975Y-65558975I-1J674975D01*
G01*
X206440001Y-37383975D02*
G75*
G02*
X207115025Y-38058975I-1J-675025D01*
G01*
X205765001Y-38058975D02*
G75*
G02*
X206440001Y-37384001I674999J-25D01*
G01*
X146365001Y-65558975D02*
X146365001Y-38058975D01*
X203065001Y-38058975D02*
G75*
G02*
X203740001Y-37384001I674999J-25D01*
G01*
X207115001Y-65558975D02*
G75*
G03*
X207790001Y-66233999I674999J-25D01*
G01*
X208465001Y-38058975D02*
G75*
G02*
X209140001Y-37384001I674999J-25D01*
G01*
X203740001Y-37383975D02*
G75*
G02*
X204415025Y-38058975I-1J-675025D01*
G01*
X204415001Y-65558975D02*
G75*
G03*
X205090001Y-66233999I674999J-25D01*
G01*
X202390001Y-66233975D02*
G75*
G03*
X203064975Y-65558975I-1J674975D01*
G01*
X209140001Y-37383975D02*
G75*
G02*
X209815025Y-38058975I-1J-675025D01*
G01*
X212515001Y-65558975D02*
G75*
G03*
X213190001Y-66233999I674999J-25D01*
G01*
X142315001Y-38058975D02*
X142315001Y-65558975D01*
X196990001Y-66233975D02*
G75*
G03*
X197664975Y-65558975I-1J674975D01*
G01*
X209815001Y-65558975D02*
G75*
G03*
X210490001Y-66233999I674999J-25D01*
G01*
X199690001Y-66233975D02*
G75*
G03*
X200364975Y-65558975I-1J674975D01*
G01*
X197665001Y-65558975D02*
X197665001Y-38058975D01*
X201040001Y-37383975D02*
G75*
G02*
X201715025Y-38058975I-1J-675025D01*
G01*
X200365001Y-38058975D02*
G75*
G02*
X201040001Y-37384001I674999J-25D01*
G01*
X199015001Y-65558975D02*
G75*
G03*
X199690001Y-66233999I674999J-25D01*
G01*
X89665001Y-65558975D02*
X89665001Y-38058975D01*
X196315001Y-65558975D02*
G75*
G03*
X196990001Y-66233999I674999J-25D01*
G01*
X201715001Y-65558975D02*
G75*
G03*
X202390001Y-66233999I674999J-25D01*
G01*
X190915001Y-65558975D02*
G75*
G03*
X191590001Y-66233999I674999J-25D01*
G01*
X186190001Y-66233975D02*
G75*
G03*
X186864975Y-65558975I-1J674975D01*
G01*
X188215001Y-65558975D02*
G75*
G03*
X188890001Y-66233999I674999J-25D01*
G01*
X192940001Y-37383975D02*
G75*
G02*
X193615025Y-38058975I-1J-675025D01*
G01*
X180790001Y-66233975D02*
G75*
G03*
X181464975Y-65558975I-1J674975D01*
G01*
X201715001Y-38058975D02*
X201715001Y-65558975D01*
X191590001Y-66233975D02*
G75*
G03*
X192264975Y-65558975I-1J674975D01*
G01*
X172690001Y-66233975D02*
G75*
G03*
X173364975Y-65558975I-1J674975D01*
G01*
X171340001Y-37383975D02*
G75*
G02*
X172015025Y-38058975I-1J-675025D01*
G01*
X168640001Y-37383975D02*
G75*
G02*
X169315025Y-38058975I-1J-675025D01*
G01*
X189565001Y-38058975D02*
G75*
G02*
X190240001Y-37384001I674999J-25D01*
G01*
X175390001Y-66233975D02*
G75*
G03*
X176064975Y-65558975I-1J674975D01*
G01*
X174040001Y-37383975D02*
G75*
G02*
X174715025Y-38058975I-1J-675025D01*
G01*
X176065001Y-38058975D02*
G75*
G02*
X176740001Y-37384001I674999J-25D01*
G01*
X178765001Y-38058975D02*
G75*
G02*
X179440001Y-37384001I674999J-25D01*
G01*
X198340001Y-37383975D02*
G75*
G02*
X199015025Y-38058975I-1J-675025D01*
G01*
X182140001Y-37383975D02*
G75*
G02*
X182815025Y-38058975I-1J-675025D01*
G01*
X174715001Y-65558975D02*
G75*
G03*
X175390001Y-66233999I674999J-25D01*
G01*
X194965001Y-38058975D02*
G75*
G02*
X195640001Y-37384001I674999J-25D01*
G01*
X95065001Y-65558975D02*
X95065001Y-38058975D01*
X190240001Y-37383975D02*
G75*
G02*
X190915025Y-38058975I-1J-675025D01*
G01*
X187540001Y-37383975D02*
G75*
G02*
X188215025Y-38058975I-1J-675025D01*
G01*
X183490001Y-66233975D02*
G75*
G03*
X184164975Y-65558975I-1J674975D01*
G01*
X167965001Y-38058975D02*
G75*
G02*
X168640001Y-37384001I674999J-25D01*
G01*
X165940001Y-37383975D02*
G75*
G02*
X166615025Y-38058975I-1J-675025D01*
G01*
X185515001Y-65558975D02*
G75*
G03*
X186190001Y-66233999I674999J-25D01*
G01*
X179440001Y-37383975D02*
G75*
G02*
X180115025Y-38058975I-1J-675025D01*
G01*
X170665001Y-38058975D02*
G75*
G02*
X171340001Y-37384001I674999J-25D01*
G01*
X194290001Y-66233975D02*
G75*
G03*
X194964975Y-65558975I-1J674975D01*
G01*
X188890001Y-66233975D02*
G75*
G03*
X189564975Y-65558975I-1J674975D01*
G01*
X184165001Y-38058975D02*
G75*
G02*
X184840001Y-37384001I674999J-25D01*
G01*
X180115001Y-65558975D02*
G75*
G03*
X180790001Y-66233999I674999J-25D01*
G01*
X169990001Y-66233975D02*
G75*
G03*
X170664975Y-65558975I-1J674975D01*
G01*
X166615001Y-65558975D02*
G75*
G03*
X167290001Y-66233999I674999J-25D01*
G01*
X149065001Y-38058975D02*
G75*
G02*
X149740001Y-37384001I674999J-25D01*
G01*
X158515001Y-65558975D02*
G75*
G03*
X159190001Y-66233999I674999J-25D01*
G01*
X155815001Y-65558975D02*
G75*
G03*
X156490001Y-66233999I674999J-25D01*
G01*
X152440001Y-37383975D02*
G75*
G02*
X153115025Y-38058975I-1J-675025D01*
G01*
X192265001Y-65558975D02*
X192265001Y-38058975D01*
X165265001Y-38058975D02*
G75*
G02*
X165940001Y-37384001I674999J-25D01*
G01*
X164590001Y-66233975D02*
G75*
G03*
X165264975Y-65558975I-1J674975D01*
G01*
X163915001Y-65558975D02*
G75*
G03*
X164590001Y-66233999I674999J-25D01*
G01*
X186865001Y-38058975D02*
G75*
G02*
X187540001Y-37384001I674999J-25D01*
G01*
X151090001Y-66233975D02*
G75*
G03*
X151764975Y-65558975I-1J674975D01*
G01*
X143665001Y-65558975D02*
X143665001Y-38058975D01*
X163240001Y-37383975D02*
G75*
G02*
X163915025Y-38058975I-1J-675025D01*
G01*
X161215001Y-65558975D02*
G75*
G03*
X161890001Y-66233999I674999J-25D01*
G01*
X159865001Y-38058975D02*
G75*
G02*
X160540001Y-37384001I674999J-25D01*
G01*
X157840001Y-37383975D02*
G75*
G02*
X158515025Y-38058975I-1J-675025D01*
G01*
X139615001Y-38058975D02*
X139615001Y-65558975D01*
X153115001Y-65558975D02*
G75*
G03*
X153790001Y-66233999I674999J-25D01*
G01*
X162565001Y-38058975D02*
G75*
G02*
X163240001Y-37384001I674999J-25D01*
G01*
X161890001Y-66233975D02*
G75*
G03*
X162564975Y-65558975I-1J674975D01*
G01*
X159190001Y-66233975D02*
G75*
G03*
X159864975Y-65558975I-1J674975D01*
G01*
X160540001Y-37383975D02*
G75*
G02*
X161215025Y-38058975I-1J-675025D01*
G01*
X178090001Y-66233975D02*
G75*
G03*
X178764975Y-65558975I-1J674975D01*
G01*
X148390001Y-66233975D02*
G75*
G03*
X149064975Y-65558975I-1J674975D01*
G01*
X103165001Y-65558975D02*
X103165001Y-38058975D01*
X195640001Y-37383975D02*
G75*
G02*
X196315025Y-38058975I-1J-675025D01*
G01*
X156490001Y-66233975D02*
G75*
G03*
X157164975Y-65558975I-1J674975D01*
G01*
X155140001Y-37383975D02*
G75*
G02*
X155815025Y-38058975I-1J-675025D01*
G01*
X149740001Y-37383975D02*
G75*
G02*
X150415025Y-38058975I-1J-675025D01*
G01*
X192265001Y-38058975D02*
G75*
G02*
X192940001Y-37384001I674999J-25D01*
G01*
X150415001Y-65558975D02*
G75*
G03*
X151090001Y-66233999I674999J-25D01*
G01*
X146365001Y-38058975D02*
G75*
G02*
X147040001Y-37384001I674999J-25D01*
G01*
X147040001Y-37383975D02*
G75*
G02*
X147715025Y-38058975I-1J-675025D01*
G01*
X203065001Y-65558975D02*
X203065001Y-38058975D01*
X213865001Y-65558975D02*
X213865001Y-38058975D01*
X190915001Y-38058975D02*
X190915001Y-65558975D01*
X189565001Y-65558975D02*
X189565001Y-38058975D01*
X177415001Y-38058975D02*
X177415001Y-65558975D01*
X188215001Y-38058975D02*
X188215001Y-65558975D01*
X194965001Y-65558975D02*
X194965001Y-38058975D01*
X185515001Y-38058975D02*
X185515001Y-65558975D01*
X184165001Y-65558975D02*
X184165001Y-38058975D01*
X212515001Y-38058975D02*
X212515001Y-65558975D01*
X200365001Y-65558975D02*
X200365001Y-38058975D01*
X180115001Y-38058975D02*
X180115001Y-65558975D01*
X173365001Y-65558975D02*
X173365001Y-38058975D01*
X193615001Y-38058975D02*
X193615001Y-65558975D01*
X196315001Y-38058975D02*
X196315001Y-65558975D01*
X186865001Y-65558975D02*
X186865001Y-38058975D01*
X182815001Y-38058975D02*
X182815001Y-65558975D01*
X181465001Y-65558975D02*
X181465001Y-38058975D01*
X204415001Y-38058975D02*
X204415001Y-65558975D01*
X215215001Y-38058975D02*
X215215001Y-65558975D01*
X178765001Y-65558975D02*
X178765001Y-38058975D01*
X205765001Y-65558975D02*
X205765001Y-38058975D01*
X174715001Y-38058975D02*
X174715001Y-65558975D01*
X209815001Y-38058975D02*
X209815001Y-65558975D01*
X211165001Y-65558975D02*
X211165001Y-38058975D01*
X176065001Y-65558975D02*
X176065001Y-38058975D01*
D13*
X84100001Y-91933975D02*
X76600001Y-99433975D01*
X83500001Y-66233975D02*
X76600001Y-73133975D01*
D14*
X86100001Y-107633975D02*
X86100001Y-106233975D01*
D13*
X84100001Y-91933975D02*
X84100001Y-69933975D01*
D15*
X76600001Y-73133975D02*
X76600001Y-74433975D01*
D12*
X216100001Y-66233975D02*
X216100001Y-107633975D01*
M02*
