0
SECTION
2
HEADER
9
$INSUNITS
70
4
9
$ACADVER
1
AC1014
9
$HANDSEED
5
FFFF
0
ENDSEC
0
SECTION
2
TABLES
0
TABLE
2
VPORT
5
8
100
AcDbSymbolTable
0
ENDTAB
0
TABLE
2
LTYPE
5
5
100
AcDbSymbolTable
0
LTYPE
5
14
100
AcDbSymbolTableRecord
100
AcDbLinetypeTableRecord
2
BYBLOCK
70
0
0
LTYPE
5
15
100
AcDbSymbolTableRecord
100
AcDbLinetypeTableRecord
2
BYLAYER
70
0
0
LTYPE
5
16
100
AcDbSymbolTableRecord
100
AcDbLinetypeTableRecord
2
DASHED
70
0
3
Dashed __ __ __ __ __ __ __ __ __ __ __ __ __ _
72
65
73
2
40
0.75
49
0.5
74
0
49
-0.25
74
0
0
ENDTAB
0
TABLE
2
LAYER
5
2
100
AcDbSymbolTable
70
2
0
LAYER
5
50
100
AcDbSymbolTableRecord
100
AcDbLayerTableRecord
2
0
70
0
62
7
6
CONTINUOUS
0
ENDTAB
0
TABLE
2
STYLE
5
3
100
AcDbSymbolTable
70
1
0
STYLE
5
11
100
AcDbSymbolTableRecord
100
AcDbTextStyleTableRecord
2
STANDARD
70
0
0
ENDTAB
0
TABLE
2
VIEW
5
6
100
AcDbSymbolTable
70
0
0
ENDTAB
0
TABLE
2
UCS
5
7
100
AcDbSymbolTable
70
0
0
ENDTAB
0
TABLE
2
APPID
5
9
100
AcDbSymbolTable
70
2
0
APPID
5
12
100
AcDbSymbolTableRecord
100
AcDbRegAppTableRecord
2
ACAD
70
0
0
ENDTAB
0
TABLE
2
DIMSTYLE
5
A
100
AcDbSymbolTable
70
1
0
ENDTAB
0
TABLE
2
BLOCK_RECORD
5
1
100
AcDbSymbolTable
70
1
0
BLOCK_RECORD
5
1F
100
AcDbSymbolTableRecord
100
AcDbBlockTableRecord
2
*MODEL_SPACE
0
BLOCK_RECORD
5
1B
100
AcDbSymbolTableRecord
100
AcDbBlockTableRecord
2
*PAPER_SPACE
0
ENDTAB
0
ENDSEC
0
SECTION
2
BLOCKS
0
BLOCK
5
20
100
AcDbEntity
100
AcDbBlockBegin
2
*MODEL_SPACE
0
ENDBLK
5
21
100
AcDbEntity
100
AcDbBlockEnd
0
BLOCK
5
1C
100
AcDbEntity
100
AcDbBlockBegin
2
*PAPER_SPACE
0
ENDBLK
5
1D
100
AcDbEntity
100
AcDbBlockEnd
0
ENDSEC
0
SECTION
2
ENTITIES
0
LWPOLYLINE
5
100
100
AcDbEntity
8
OUTER_PROFILES
100
AcDbPolyline
90
46
70
1
43
0.0
10
-10.31093025280283
20
79.583297851748981
42
-0.34153232513393655
10
-9.3431033765785223
20
80.331680806106419
10
-7.8919895634997097
20
80.331680806106306
42
0.26794919243116494
10
-7.0259641597152545
20
80.831680806106476
10
-5.9217817698903144
20
82.744180806106158
42
-0.26794919243112347
10
-5.0557563661058893
20
83.244180806106186
10
-0.43695421258894979
20
83.244180806106186
42
-0.26794919243113952
10
0.42907119119553805
20
82.744180806106158
10
1.5332535810206034
20
80.83168080610632
42
0.26794919243112608
10
2.3992789848050489
20
80.331680806106306
10
11.00364471065269
20
80.331680806106277
42
-0.4142135623730937
10
12.003644710652694
20
79.331680806106291
10
12.00364471065269
20
75.656680806106209
10
27.503644710652697
20
75.656680806106209
10
27.503644710652697
20
79.331680806106263
42
-0.41421356237309764
10
28.503644710652697
20
80.331680806106363
10
37.10801043650023
20
80.331680806106306
42
0.2679491924311263
10
37.974035840284678
20
80.83168080610632
10
39.07821823010979
20
82.744180806106286
42
-0.26794919243113696
10
39.94424363389426
20
83.244180806106328
10
44.56304578741117
20
83.244180806106328
42
-0.26794919243113108
10
45.429071191195611
20
82.7441808061063
10
46.533253581020794
20
80.831680806106178
42
0.26794919243112569
10
47.399278984805235
20
80.331680806106363
10
48.850392792417352
20
80.331680806106419
42
-0.34153233088876789
10
49.818219673828679
20
79.583297831797495
10
56.592779372768582
20
53.525438796418285
42
-0.063673510394590932
10
56.75364496571197
20
52.267353667962766
10
56.753644965711977
20
41.10471771917873
42
-0.069466843657001537
10
56.562468818323723
20
39.735333494590044
10
50.406602858880859
20
18.117971086191538
42
0.047574653710418954
10
49.545854669645962
20
13.449943531959452
10
48.86871823113664
20
5.7102386236926117
42
-0.26794919243112308
10
47.147988922083499
20
3.2527824908256289
10
40.77514515688889
20
0.28107663889005929
42
-0.10951781168324214
10
39.507290371666784
20
6.1756155744774333e-15
10
8.3266726846886741e-16
20
6.6613381477509392e-15
42
-0.10951781168324108
10
-1.2678547852220934
20
0.2810766388900543
10
-7.6406985504167455
20
3.2527824908256586
42
-0.26794919243112408
10
-9.3614278594698934
20
5.7102386236926446
10
-10.038564279768423
20
13.449943323795841
42
0.047574657861362869
10
-10.899312582428454
20
18.117971276349891
10
-17.055178864214543
20
39.735333457149267
42
-0.069466847818491828
10
-17.246355034288044
20
41.10471776140102
10
-17.246355034288044
20
52.267357856985655
42
-0.063673515569163786
10
-17.085489415409569
20
53.525443085198532
0
CIRCLE
5
101
100
AcDbEntity
8
INTERIOR_PROFILES
100
AcDbCircle
10
0.24635756748526472
20
34.906680806106891
30
0
40
1.749999999999998
210
0
220
0
230
-1
0
CIRCLE
5
102
100
AcDbEntity
8
INTERIOR_PROFILES
100
AcDbCircle
10
0.24635756748526028
20
58.406680806106834
30
0
40
1.749999999999998
210
0
220
0
230
-1
0
CIRCLE
5
103
100
AcDbEntity
8
INTERIOR_PROFILES
100
AcDbCircle
10
12.246357567485262
20
46.656680806106863
30
0
40
1.7499999999999982
210
0
220
0
230
-1
0
CIRCLE
5
104
100
AcDbEntity
8
INTERIOR_PROFILES
100
AcDbCircle
10
-27.253644965711949
20
54.65668080610655
30
0
40
1.6000000000000014
210
0
220
0
230
-1
0
CIRCLE
5
105
100
AcDbEntity
8
INTERIOR_PROFILES
100
AcDbCircle
10
-39.753647498909139
20
34.906680806106891
30
0
40
1.7500000000000027
210
0
220
0
230
-1
0
CIRCLE
5
106
100
AcDbEntity
8
INTERIOR_PROFILES
100
AcDbCircle
10
-12.253644965711985
20
38.656680806106749
30
0
40
1.6000000000000014
210
0
220
0
230
-1
0
CIRCLE
5
107
100
AcDbEntity
8
INTERIOR_PROFILES
100
AcDbCircle
10
-39.753647498909153
20
58.406680806106834
30
0
40
1.7500000000000027
210
0
220
0
230
-1
0
CIRCLE
5
108
100
AcDbEntity
8
INTERIOR_PROFILES
100
AcDbCircle
10
-42.253644710652694
20
78.244180806106272
30
0
40
1.6000000000000001
210
0
220
0
230
-1
0
CIRCLE
5
109
100
AcDbEntity
8
INTERIOR_PROFILES
100
AcDbCircle
10
2.7463552893473153
20
78.244180806106272
30
0
40
1.5999999999999992
210
0
220
0
230
-1
0
CIRCLE
5
110
100
AcDbEntity
8
INTERIOR_PROFILES
100
AcDbCircle
10
-27.253644965711942
20
38.656680806106749
30
0
40
1.6000000000000014
210
0
220
0
230
-1
0
CIRCLE
5
111
100
AcDbEntity
8
INTERIOR_PROFILES
100
AcDbCircle
10
-39.753647498909146
20
46.656680806106863
30
0
40
1.7500000000000027
210
0
220
0
230
-1
0
CIRCLE
5
112
100
AcDbEntity
8
INTERIOR_PROFILES
100
AcDbCircle
10
-51.75364749890916
20
46.656680806106721
30
0
40
1.7499999999999982
210
0
220
0
230
-1
0
CIRCLE
5
113
100
AcDbEntity
8
INTERIOR_PROFILES
100
AcDbCircle
10
0.24635756748523363
20
46.656680806106721
30
0
40
1.749999999999998
210
0
220
0
230
-1
0
CIRCLE
5
114
100
AcDbEntity
8
INTERIOR_PROFILES
100
AcDbCircle
10
-12.253644965711967
20
54.65668080610655
30
0
40
1.6000000000000014
210
0
220
0
230
-1
0
CIRCLE
5
115
100
AcDbEntity
8
INTERIOR_PROFILES
100
AcDbCircle
10
-27.753644965711949
20
7.4999999999999645
30
0
40
1.6000000000000014
210
0
220
0
230
-1
0
CIRCLE
5
116
100
AcDbEntity
8
INTERIOR_PROFILES
100
AcDbCircle
10
-11.753644965711967
20
7.4999999999999645
30
0
40
1.6000000000000014
210
0
220
0
230
-1
0
LINE
5
117
100
AcDbEntity
8
BEND
100
AcDbLine
10
-10.44238724584706
20
16.240840403053003
30
6.8601978595699594e-14
11
49.949677593503175
21
16.240840403053003
31
3.2446371147878969e-14
0
ENDSEC
0
SECTION
2
OBJECTS
0
DICTIONARY
5
C
100
AcDbDictionary
3
ACAD_GROUP
350
D
3
ACAD_MLINESTYLE
350
17
0
DICTIONARY
5
D
100
AcDbDictionary
0
DICTIONARY
5
1A
330
C
100
AcDbDictionary
0
DICTIONARY
5
17
100
AcDbDictionary
0
ENDSEC
0
EOF
