0
SECTION
2
HEADER
9
$INSUNITS
70
4
9
$ACADVER
1
AC1014
9
$HANDSEED
5
FFFF
0
ENDSEC
0
SECTION
2
TABLES
0
TABLE
2
VPORT
5
8
100
AcDbSymbolTable
0
ENDTAB
0
TABLE
2
LTYPE
5
5
100
AcDbSymbolTable
0
LTYPE
5
14
100
AcDbSymbolTableRecord
100
AcDbLinetypeTableRecord
2
BYBLOCK
70
0
0
LTYPE
5
15
100
AcDbSymbolTableRecord
100
AcDbLinetypeTableRecord
2
BYLAYER
70
0
0
LTYPE
5
16
100
AcDbSymbolTableRecord
100
AcDbLinetypeTableRecord
2
DASHED
70
0
3
Dashed __ __ __ __ __ __ __ __ __ __ __ __ __ _
72
65
73
2
40
0.75
49
0.5
74
0
49
-0.25
74
0
0
ENDTAB
0
TABLE
2
LAYER
5
2
100
AcDbSymbolTable
70
2
0
LAYER
5
50
100
AcDbSymbolTableRecord
100
AcDbLayerTableRecord
2
0
70
0
62
7
6
CONTINUOUS
0
ENDTAB
0
TABLE
2
STYLE
5
3
100
AcDbSymbolTable
70
1
0
STYLE
5
11
100
AcDbSymbolTableRecord
100
AcDbTextStyleTableRecord
2
STANDARD
70
0
0
ENDTAB
0
TABLE
2
VIEW
5
6
100
AcDbSymbolTable
70
0
0
ENDTAB
0
TABLE
2
UCS
5
7
100
AcDbSymbolTable
70
0
0
ENDTAB
0
TABLE
2
APPID
5
9
100
AcDbSymbolTable
70
2
0
APPID
5
12
100
AcDbSymbolTableRecord
100
AcDbRegAppTableRecord
2
ACAD
70
0
0
ENDTAB
0
TABLE
2
DIMSTYLE
5
A
100
AcDbSymbolTable
70
1
0
ENDTAB
0
TABLE
2
BLOCK_RECORD
5
1
100
AcDbSymbolTable
70
1
0
BLOCK_RECORD
5
1F
100
AcDbSymbolTableRecord
100
AcDbBlockTableRecord
2
*MODEL_SPACE
0
BLOCK_RECORD
5
1B
100
AcDbSymbolTableRecord
100
AcDbBlockTableRecord
2
*PAPER_SPACE
0
ENDTAB
0
ENDSEC
0
SECTION
2
BLOCKS
0
BLOCK
5
20
100
AcDbEntity
100
AcDbBlockBegin
2
*MODEL_SPACE
0
ENDBLK
5
21
100
AcDbEntity
100
AcDbBlockEnd
0
BLOCK
5
1C
100
AcDbEntity
100
AcDbBlockBegin
2
*PAPER_SPACE
0
ENDBLK
5
1D
100
AcDbEntity
100
AcDbBlockEnd
0
ENDSEC
0
SECTION
2
ENTITIES
0
CIRCLE
5
100
100
AcDbEntity
8
0
100
AcDbCircle
10
-1.000000000000032
20
-73.000000774860254
30
0
40
1.5999999999999859
210
-9.8607613152626476e-32
220
2.2566110587096219e-48
230
1
0
CIRCLE
5
101
100
AcDbEntity
8
0
100
AcDbCircle
10
43.999999999999972
20
-58.999999999999908
30
0
40
1.6000000000000014
210
-0
220
0
230
1
0
CIRCLE
5
102
100
AcDbEntity
8
0
100
AcDbCircle
10
89
20
-73.000000774860254
30
0
40
1.5999999999999859
210
-9.8607613152626476e-32
220
-2.2566110587096383e-48
230
1
0
CIRCLE
5
103
100
AcDbEntity
8
0
100
AcDbCircle
10
43.999999999999986
20
9.7699626167013776e-14
30
0
40
1.6000000000000014
210
-0
220
0
230
1
0
LWPOLYLINE
5
104
100
AcDbEntity
8
0
100
AcDbPolyline
90
64
70
1
43
0.0
10
55.500000000000007
20
51.500000000000092
10
86.757359312880681
20
51.500000000000092
42
0.19891236737965967
10
88.87867965644034
20
52.378679656440468
10
94.621320343559688
20
58.121320343559795
42
0.19891236737965717
10
95.500000000000028
20
60.242640687119462
10
95.499999999999915
20
72.86602617864493
42
0.13165249758739603
10
94.964101615137736
20
74.86602617864493
10
92.866025403784448
20
78.500000774860453
42
0.26794919243112247
10
91.13397459621558
20
79.500000774860453
10
86.866025403784448
20
79.500000774860453
42
0.26794919243112142
10
85.13397459621558
20
78.500000774860453
10
83.03589838486225
20
74.86602617864493
42
0.13165249758739644
10
82.500000000000014
20
72.866026178644901
10
82.500000000000028
20
70.500000000000085
42
-0.41421356237309176
10
78.500000000000028
20
66.500000000000071
10
9.4999999999999396
20
66.500000000000071
42
-0.41421356237309503
10
5.4999999999999396
20
70.500000000000085
10
5.4999999999999547
20
72.866026178644901
42
0.13165249758739836
10
4.9641016151377064
20
74.866026178644915
10
2.8660254037844135
20
78.500000774860467
42
0.26794919243111903
10
1.1339745962155252
20
79.500000774860453
10
-3.1339745962156025
20
79.500000774860453
42
0.26794919243111898
10
-4.8660254037844766
20
78.500000774860453
10
-6.9641016151377642
20
74.86602617864493
42
0.13165249758739461
10
-7.5000000000000142
20
72.86602617864493
10
-7.4999999999999467
20
60.242640687119469
42
0.19891236737965889
10
-6.6213203435596917
20
58.121320343559816
10
-0.87867965644038648
20
52.378679656440461
42
0.19891236737965848
10
1.2426406871192877
20
51.500000000000092
10
32.499999999999964
20
51.500000000000092
42
-0.41421356237309503
10
36.499999999999964
20
47.500000000000085
10
36.499999999999986
20
-47.499999999999915
42
-0.41421356237309503
10
32.499999999999986
20
-51.499999999999915
10
1.2426406871192874
20
-51.499999999999915
42
0.19891236737965023
10
-0.8786796564403403
20
-52.378679656440269
10
-6.621320343559578
20
-58.121320343559546
42
0.19891236737965892
10
-7.5000000000000488
20
-60.242640687119078
10
-7.4999999999999414
20
-72.866026178644759
42
0.13165249758739733
10
-6.9641016151377517
20
-74.866026178644773
10
-4.8660254037845041
20
-78.500000774860268
42
0.26794919243112209
10
-3.1339745962156069
20
-79.500000774860254
10
1.1339745962155667
20
-79.50000077486024
42
0.2679491924311192
10
2.8660254037844424
20
-78.50000077486024
10
4.9641016151376736
20
-74.866026178644745
42
0.13165249758739486
10
5.4999999999999503
20
-72.866026178644745
10
5.4999999999999361
20
-70.499999999999901
42
-0.4142135623730952
10
9.4999999999999414
20
-66.499999999999901
10
78.500000000000028
20
-66.499999999999901
42
-0.41421356237309176
10
82.500000000000028
20
-70.499999999999901
10
82.500000000000085
20
-72.866026178644745
42
0.1316524975873965
10
83.035898384862264
20
-74.866026178644759
10
85.133974596215566
20
-78.500000774860226
42
0.2679491924311237
10
86.866025403784434
20
-79.500000774860226
10
91.13397459621558
20
-79.50000077486024
42
0.26794919243112147
10
92.866025403784448
20
-78.500000774860254
10
94.964101615137764
20
-74.866026178644773
42
0.13165249758739536
10
95.499999999999986
20
-72.866026178644773
10
95.499999999999915
20
-60.242640687119078
42
0.19891236737965803
10
94.62132034355966
20
-58.121320343559439
10
88.878679656440283
20
-52.378679656440283
42
0.19891236737965584
10
86.757359312880681
20
-51.499999999999922
10
55.499999999999986
20
-51.499999999999915
42
-0.4142135623730937
10
51.499999999999986
20
-47.499999999999915
10
51.5
20
47.500000000000085
42
-0.41421356237309503
0
CIRCLE
5
105
100
AcDbEntity
8
0
100
AcDbCircle
10
43.999999999999986
20
59.000000000000085
30
0
40
1.6000000000000014
210
-0
220
0
230
1
0
CIRCLE
5
106
100
AcDbEntity
8
0
100
AcDbCircle
10
89
20
73.000000774860439
30
0
40
1.5999999999999859
210
-9.8607613152626476e-32
220
9.8193387231828049e-48
230
1
0
CIRCLE
5
107
100
AcDbEntity
8
0
100
AcDbCircle
10
-1.000000000000032
20
73.000000774860439
30
0
40
1.5999999999999859
210
-9.8607613152626476e-32
220
-9.819338723182822e-48
230
1
0
ENDSEC
0
SECTION
2
OBJECTS
0
DICTIONARY
5
C
100
AcDbDictionary
3
ACAD_GROUP
350
D
3
ACAD_MLINESTYLE
350
17
0
DICTIONARY
5
D
100
AcDbDictionary
0
DICTIONARY
5
1A
330
C
100
AcDbDictionary
0
DICTIONARY
5
17
100
AcDbDictionary
0
ENDSEC
0
EOF
