0
SECTION
2
HEADER
9
$INSUNITS
70
4
9
$ACADVER
1
AC1014
9
$HANDSEED
5
FFFF
0
ENDSEC
0
SECTION
2
TABLES
0
TABLE
2
VPORT
5
8
100
AcDbSymbolTable
0
ENDTAB
0
TABLE
2
LTYPE
5
5
100
AcDbSymbolTable
0
LTYPE
5
14
100
AcDbSymbolTableRecord
100
AcDbLinetypeTableRecord
2
BYBLOCK
70
0
0
LTYPE
5
15
100
AcDbSymbolTableRecord
100
AcDbLinetypeTableRecord
2
BYLAYER
70
0
0
LTYPE
5
16
100
AcDbSymbolTableRecord
100
AcDbLinetypeTableRecord
2
DASHED
70
0
3
Dashed __ __ __ __ __ __ __ __ __ __ __ __ __ _
72
65
73
2
40
0.75
49
0.5
74
0
49
-0.25
74
0
0
ENDTAB
0
TABLE
2
LAYER
5
2
100
AcDbSymbolTable
70
2
0
LAYER
5
50
100
AcDbSymbolTableRecord
100
AcDbLayerTableRecord
2
0
70
0
62
7
6
CONTINUOUS
0
ENDTAB
0
TABLE
2
STYLE
5
3
100
AcDbSymbolTable
70
1
0
STYLE
5
11
100
AcDbSymbolTableRecord
100
AcDbTextStyleTableRecord
2
STANDARD
70
0
0
ENDTAB
0
TABLE
2
VIEW
5
6
100
AcDbSymbolTable
70
0
0
ENDTAB
0
TABLE
2
UCS
5
7
100
AcDbSymbolTable
70
0
0
ENDTAB
0
TABLE
2
APPID
5
9
100
AcDbSymbolTable
70
2
0
APPID
5
12
100
AcDbSymbolTableRecord
100
AcDbRegAppTableRecord
2
ACAD
70
0
0
ENDTAB
0
TABLE
2
DIMSTYLE
5
A
100
AcDbSymbolTable
70
1
0
ENDTAB
0
TABLE
2
BLOCK_RECORD
5
1
100
AcDbSymbolTable
70
1
0
BLOCK_RECORD
5
1F
100
AcDbSymbolTableRecord
100
AcDbBlockTableRecord
2
*MODEL_SPACE
0
BLOCK_RECORD
5
1B
100
AcDbSymbolTableRecord
100
AcDbBlockTableRecord
2
*PAPER_SPACE
0
ENDTAB
0
ENDSEC
0
SECTION
2
BLOCKS
0
BLOCK
5
20
100
AcDbEntity
100
AcDbBlockBegin
2
*MODEL_SPACE
0
ENDBLK
5
21
100
AcDbEntity
100
AcDbBlockEnd
0
BLOCK
5
1C
100
AcDbEntity
100
AcDbBlockBegin
2
*PAPER_SPACE
0
ENDBLK
5
1D
100
AcDbEntity
100
AcDbBlockEnd
0
ENDSEC
0
SECTION
2
ENTITIES
0
LWPOLYLINE
5
100
100
AcDbEntity
8
0
100
AcDbPolyline
90
40
70
1
43
0.0
10
44.500000255059263
20
95.175000938773309
42
0.41421356237309764
10
43.50000025505927
20
96.17500093877328
10
30.500000255059263
20
96.175000938773309
42
0.41421356237309631
10
29.500000255059259
20
95.175000938773309
10
29.500000255059259
20
93.000000938773312
10
16.125000255059263
20
93.000000938773312
10
16.125000255059263
20
90.175000938773138
10
17.300000255059263
20
90.175000938773152
10
17.300000255059263
20
85.975000938773164
10
16.250000255059263
20
85.975000938773164
10
16.250000255059263
20
84.97500093877315
10
12.750000255059263
20
84.97500093877315
10
12.750000255059263
20
85.975000938773164
10
11.700000255059262
20
85.975000938773164
10
11.700000255059262
20
90.175000938773152
10
12.875000255059261
20
90.175000938773138
10
12.875000255059259
20
93.000000938773312
10
7.0000002201214517
20
93.000000938773312
10
7.8849271748181593
20
82.885239562466637
42
0.26794919243112097
10
9.6056564838712983
20
80.427783429599657
10
15.978500249065926
20
77.456077577664061
42
0.10951781168324087
10
17.24635503428803
20
77.175000938774019
10
56.753645405954849
20
77.175000938774019
42
0.10951781168324001
10
58.021500191176955
20
77.456077577664061
10
64.394343956371614
20
80.427783429599657
42
0.26794919243112453
10
66.115073265424755
20
82.885239562466651
10
67.00000022012145
20
93.000000938773312
10
61.125000255059263
20
93.000000938773312
10
61.125000255059263
20
90.175000938773138
10
62.300000255059267
20
90.175000938773152
10
62.300000255059267
20
85.975000938773164
10
61.250000255059263
20
85.975000938773164
10
61.250000255059263
20
84.97500093877315
10
57.750000255059263
20
84.97500093877315
10
57.750000255059263
20
85.975000938773164
10
56.700000255059265
20
85.975000938773164
10
56.700000255059265
20
90.175000938773152
10
57.87500025505927
20
90.175000938773138
10
57.87500025505927
20
93.000000938773312
10
44.500000255059263
20
93.000000938773312
0
CIRCLE
5
101
100
AcDbEntity
8
0
100
AcDbCircle
10
29.000000000000021
20
84.675000938774019
30
0
40
1.6000000000000003
210
0
220
0
230
1
0
CIRCLE
5
102
100
AcDbEntity
8
0
100
AcDbCircle
10
45.000000000000014
20
84.675000938774019
30
0
40
1.6000000000000003
210
0
220
0
230
1
0
ENDSEC
0
SECTION
2
OBJECTS
0
DICTIONARY
5
C
100
AcDbDictionary
3
ACAD_GROUP
350
D
3
ACAD_MLINESTYLE
350
17
0
DICTIONARY
5
D
100
AcDbDictionary
0
DICTIONARY
5
1A
330
C
100
AcDbDictionary
0
DICTIONARY
5
17
100
AcDbDictionary
0
ENDSEC
0
EOF
